<svg xmlns="http://www.w3.org/2000/svg" width="139" height="138" viewBox="0 0 139 138" fill="none">
  <g clip-path="url(#clip0_264_112)">
    <path
      d="M112.231 80.349C111.675 79.1522 111.76 78.2471 111.415 77.5529C109.763 74.245 109.614 74.0019 111.117 70.9765C111.61 69.991 112.137 69.358 111.61 68.1354C111.38 67.5995 111.178 65.8635 114.138 67.6234C115.227 67.9263 115.149 66.7881 115.07 65.6499C114.681 65.6847 114.295 65.7017 113.91 65.7493C112.847 65.8946 112.432 66.844 112.776 67.5077C113.202 68.3368 114.163 68.9051 114.939 69.5288C115.004 69.5818 115.408 69.221 114.138 67.6234C112.055 63.4005 112.375 61.2617 113.936 58.781C115.17 56.8196 115.106 58.3912 115.821 58.7496C116.986 59.3385 118.176 58.2218 117.635 56.5894C117.132 55.0665 116.961 54.6132 118.75 54.688C119.246 54.7069 119.684 53.6458 120.316 54.6722C120.972 55.739 121.838 56.6753 122.486 57.747C123.213 58.9408 122.16 58.5281 121.615 58.6655C121.33 58.7352 120.873 59.2701 120.927 59.3824C122.808 63.3535 123.014 65.0233 122.34 68.8697C122.188 69.7396 122.979 71.1385 122.58 71.5367C121.558 72.5587 121.291 73.5379 121.703 74.7967C122.013 75.7469 122.436 76.6669 122.772 77.6091C122.88 77.9186 122.994 78.308 122.894 78.59C121.445 82.6768 122.922 86.9604 122.004 91.0837C121.127 95.0191 122.572 99.1211 121.175 103.04C120.655 104.495 120.263 105.99 119.853 107.481C119.752 107.842 119.677 108.384 119.871 108.616C121.468 110.564 121.32 112.354 119.681 114.219C119.271 114.689 119.273 115.51 119.047 116.156C118.495 117.734 119.511 120.27 116.432 120.389C116.248 120.396 115.702 122.28 116.051 122.719C117.476 124.524 116.182 125.192 114.99 126.023C113.962 126.739 112.922 127.454 111.944 128.24C111.357 128.711 110.789 129.861 110.388 129.785C109.072 129.53 108.55 128.497 108.519 127.068C108.495 126.116 107.948 125.17 107.631 124.224C106.555 124.714 105.735 124.29 104.885 123.6C104.702 123.449 103.681 123.857 103.661 124.06C103.485 125.869 102.298 125.307 101.302 125.147C86.2425 122.731 71.1825 120.32 56.1311 117.857C55.1643 117.701 54.1319 117.273 53.3848 116.66C52.734 116.13 50.8279 116.292 51.7551 114.689C52.0074 114.255 53.2526 114.418 54.0369 114.271C54.3625 114.214 54.6727 114.063 54.9812 113.96C54.7883 113.722 54.6441 113.371 54.3986 113.27C52.6119 112.539 51.1264 110.919 51.6342 109.388C52.0712 108.071 54.2974 107.772 56.0527 108.018C56.3976 108.067 56.8225 107.582 57.2082 107.34C56.8777 106.861 56.5785 105.998 56.206 105.968C54.068 105.794 52.1655 105.026 50.573 103.693C49.8595 103.098 48.717 102.068 49.6413 101.012C50.2301 100.34 51.4716 99.8463 52.3746 99.9064C54.6913 100.066 56.9883 100.576 59.2894 100.946C59.8231 101.032 60.3531 101.141 60.8876 101.184C61.0259 101.195 61.3141 100.991 61.3078 100.917C61.2717 100.65 61.2141 100.251 61.0339 100.162C59.8415 99.556 58.611 99.0356 57.4078 98.4588C56.3572 97.9552 55.3436 97.3723 54.2911 96.8805C52.99 96.2697 53.8864 95.8785 54.4447 95.585C56.2869 94.6097 58.1698 94.0243 60.3425 94.5502C65.6114 95.8358 70.9085 97.0225 76.2065 98.2033C77.6046 98.5134 79.0356 98.6949 80.4598 98.8814C80.7641 98.9182 81.0948 98.7159 81.4142 98.6212C81.2764 98.3435 81.1946 98.02 80.9997 97.794C77.0067 93.1909 73.6397 88.0618 69.111 83.914C68.851 83.6775 68.6939 83.3298 68.4712 83.0506C64.966 78.6294 61.4893 74.1823 57.935 69.8019C56.1887 67.6471 54.3096 65.5986 52.4669 63.5135C50.6292 61.4352 49.7535 58.52 47.0007 57.2132C46.7185 57.0765 46.5748 56.6458 46.3589 56.3616C38.8565 46.4179 31.3482 36.4732 23.8595 26.5196C22.4764 24.6787 22.0048 22.6559 22.0516 20.2845C22.096 18.004 21.3709 15.7031 20.9353 13.4184C20.8375 12.8916 19.6804 12.4074 20.8121 11.8776C21.5291 11.5427 22.8131 11.0495 23.0665 11.3276C24.1389 12.5283 25.1569 13.197 26.7031 12.2837C25.7689 11.5858 24.8024 10.9375 23.9211 10.1752C23.4934 9.80827 22.8672 9.08695 22.9879 8.79C23.2207 8.21294 23.9194 7.42487 24.424 7.42695C25.7366 7.4373 27.2989 7.44525 28.3022 8.12988C30.7806 9.8184 33.2264 11.672 35.28 13.8459C40.2664 19.1198 44.9443 24.6849 49.8875 30.0006C55.0731 35.5865 59.9885 41.4149 65.1269 47.0297C70.0328 52.3881 74.234 58.3449 79.5252 63.3881C82.4215 66.1477 84.5746 69.67 87.2992 72.6271C91.3771 77.0431 95.1347 81.7483 99.5516 85.872C101.959 88.1149 103.867 90.892 106.031 93.4C106.636 94.0997 107.355 94.702 108.023 95.351C108.227 94.5015 108.826 93.4968 108.562 92.8336C107.541 90.2905 109.703 89.1051 110.448 86.9737C110.784 87.113 110.923 87.4213 111.096 87.4431C111.562 87.4997 112.034 87.4358 112.506 87.4143C112.484 87.1735 112.489 86.7241 112.43 86.7146C111.86 86.6289 111.272 86.6135 110.442 86.9727C109.86 87.1103 108.526 87.5712 108.639 86.2265C108.794 84.2801 109.108 82.3289 109.571 80.4321C109.89 79.1327 111.011 79.9944 112.231 80.349C112.534 80.5072 112.402 80.2729 112.269 80.0386C112.083 80.173 111.904 80.3024 111.718 80.4368C111.899 80.6362 112.072 80.8466 112.282 81.0143C112.315 81.0378 112.523 80.8401 112.231 80.349ZM107.845 101.224C107.165 100.573 106.825 100.001 106.355 99.8587C105.757 99.6775 105.054 99.8503 104.401 99.8668C104.982 100.563 105.519 101.312 106.183 101.912C106.322 102.032 106.95 101.609 107.845 101.224ZM60.6775 114.329C60.3806 113.679 60.2456 113.383 60.1106 113.088C59.5516 113.613 58.9917 114.143 58.4387 114.669C58.7181 114.823 59.0528 115.163 59.2647 115.094C59.7774 114.933 60.2287 114.585 60.6775 114.329ZM117.251 115.222C117.096 115.124 116.748 114.904 116.394 114.682C116.229 114.954 115.903 115.242 115.929 115.496C115.963 115.854 116.263 116.182 116.445 116.522C116.611 116.25 116.782 115.98 117.251 115.222ZM67.2468 102.463C67.3447 102.308 67.5649 101.96 67.7861 101.607C67.5146 101.441 67.2263 101.115 66.9727 101.141C66.6144 101.175 66.2862 101.475 65.9466 101.658C66.2112 101.828 66.4887 101.994 67.2468 102.463ZM110.462 126.487C110.627 126.367 110.765 126.268 110.902 126.168C110.684 126.011 110.485 125.815 110.244 125.722C110.158 125.689 109.979 125.898 109.841 125.997C110.052 126.159 110.256 126.326 110.462 126.487ZM114.65 84.9422C114.485 85.0616 114.347 85.1612 114.209 85.2607C114.428 85.4175 114.627 85.6139 114.868 85.7073C114.954 85.7394 115.133 85.531 115.271 85.4315C115.061 85.2638 114.85 85.0961 114.65 84.9422ZM108.714 121.843C108.96 121.755 109.205 121.667 109.457 121.573C109.358 121.436 109.253 121.181 109.161 121.185C108.903 121.198 108.652 121.322 108.396 121.403C108.495 121.54 108.595 121.678 108.714 121.843ZM102.74 122.671C102.641 122.533 102.536 122.279 102.444 122.283C102.186 122.296 101.935 122.42 101.679 122.5C101.778 122.638 101.883 122.892 101.975 122.889C102.233 122.875 102.484 122.751 102.74 122.671ZM94.1995 114.757C94.1 114.619 93.9949 114.365 93.9031 114.368C93.6454 114.382 93.3943 114.505 93.1379 114.586C93.2375 114.724 93.3426 114.978 93.4344 114.974C93.6871 114.954 93.9432 114.837 94.1995 114.757ZM71.5641 102.932C71.7018 102.833 71.956 102.728 71.9525 102.636C71.9392 102.378 71.8153 102.127 71.7348 101.871C71.5971 101.97 71.3429 102.075 71.3464 102.167C71.3597 102.425 71.4827 102.682 71.5641 102.932ZM60.9736 108.706C61.1388 108.587 61.2765 108.487 61.4142 108.388C61.1961 108.231 60.9965 108.035 60.756 107.941C60.6699 107.909 60.4903 108.117 60.3526 108.217C60.5629 108.385 60.7733 108.552 60.9736 108.706Z"
      fill="#FFDD00"/>
    <path
      d="M73.8753 123.096C71.6924 121.99 69.0059 123.146 67.1764 121.13C69.4373 121.372 71.7473 121.385 73.9367 121.919C76.1559 122.459 78.7486 121.659 80.5819 123.651C78.3243 123.465 76.0607 123.277 73.8753 123.096Z"
      fill="#FFDD00"/>
    <path
      d="M61.8429 121.002C60.9652 120.861 60.0808 120.761 59.2194 120.556C58.9326 120.485 58.7154 120.134 58.4702 119.918C58.7776 119.785 59.1029 119.503 59.3826 119.542C61.3177 119.804 63.2452 120.114 65.1591 120.471C65.4369 120.522 65.6632 120.893 65.9073 121.114C65.6 121.248 65.2825 121.519 64.995 121.491C63.9426 121.376 62.8927 121.171 61.8429 121.002Z"
      fill="#FFDD00"/>
    <path
      d="M55.2479 119.942C53.9787 119.737 53.2722 119.666 52.5957 119.484C52.4385 119.441 52.3501 119.007 52.314 118.739C52.3027 118.659 52.5859 118.449 52.7242 118.459C53.4238 118.535 54.1774 118.54 54.8031 118.811C55.6049 119.159 56.9542 118.336 57.2039 119.885C56.3666 119.909 55.5234 119.931 55.2479 119.942Z"
      fill="#FFDD00"/>
    <path
      d="M107.077 128.236C106.725 127.93 106.322 127.707 106.348 127.583C106.453 127.12 106.706 126.686 106.899 126.242C107.109 126.41 107.516 126.603 107.498 126.752C107.453 127.22 107.247 127.673 107.077 128.236Z"
      fill="#FFDD00"/>
    <path
      d="M50.6505 114.292C50.3942 114.373 50.1431 114.496 49.8854 114.51C49.7936 114.513 49.6885 114.259 49.5889 114.121C49.8452 114.041 50.0964 113.917 50.354 113.904C50.4459 113.9 50.551 114.154 50.6505 114.292Z"
      fill="#FFDD00"/>
  </g>
  <defs>
    <clipPath id="clip0_264_112">
      <rect width="120.139" height="120.139" fill="white" transform="translate(138.398 19.0801) rotate(99.1382)"/>
    </clipPath>
  </defs>
</svg>
