<svg xmlns="http://www.w3.org/2000/svg" width="76" height="76" viewBox="0 0 76 76" fill="none">
  <path
    d="M15.833 47.5001L15.8552 47.8706C15.9459 48.6409 16.3162 49.3511 16.8958 49.8665C17.4754 50.3819 18.2241 50.6667 18.9997 50.6668L34.8298 50.6668L34.833 58.8558C34.8333 60.1082 35.2049 61.3324 35.9008 62.3737C36.5967 63.4149 37.5858 64.2265 38.7429 64.7057C39.9 65.185 41.1732 65.3104 42.4015 65.0661C43.6299 64.8219 44.7583 64.2189 45.644 63.3334L66.4997 42.4778C67.687 41.2901 68.354 39.6795 68.354 38.0001C68.354 36.3207 67.687 34.7101 66.4997 33.5224L45.644 12.6668C44.7583 11.7805 43.6297 11.1769 42.4008 10.9323C41.172 10.6876 39.8982 10.813 38.7407 11.2924L38.2815 11.5078C37.2435 12.0388 36.3723 12.8461 35.7639 13.8407C35.1554 14.8353 34.8333 15.9785 34.833 17.1444L34.8298 25.3334L18.9997 25.3334C18.1598 25.3334 17.3544 25.6671 16.7605 26.2609C16.1666 26.8548 15.833 27.6602 15.833 28.5001L15.833 47.5001Z"
    fill="#457c1f"/>
  <path
    d="M6.33301 28.4999C6.3339 27.6928 6.64296 26.9165 7.19703 26.3296C7.7511 25.7427 8.50836 25.3895 9.31409 25.3422C10.1198 25.2949 10.9132 25.5571 11.5321 26.0751C12.1511 26.5931 12.5488 27.328 12.6442 28.1294L12.6663 28.4999L12.6663 47.4999C12.6654 48.307 12.3564 49.0834 11.8023 49.6703C11.2483 50.2572 10.491 50.6103 9.68526 50.6576C8.87953 50.7049 8.08614 50.4428 7.4672 49.9248C6.84827 49.4067 6.4505 48.6719 6.35517 47.8704L6.33301 47.4999L6.33301 28.4999Z"
    fill="#457c1f"/>
</svg>
