<svg xmlns="http://www.w3.org/2000/svg" width="202" height="202" viewBox="0 0 202 202" fill="none">
    <path d="M94.6113 56.3445C94.5427 55.6281 94.4741 54.9116 94.2817 53.966C94.5805 54.0857 94.9327 54.3764 95.285 54.6671C95.6876 54.9994 96.1812 55.5083 96.5606 54.8231C96.9011 54.2158 96.2054 53.9209 95.8072 53.6346C95.4795 53.4064 95.0604 53.2889 94.6614 53.1881C94.5669 53.1693 94.4078 53.4441 94.2716 53.9577C93.8638 54.6363 93.3648 54.9436 92.8256 54.1517C92.7078 53.9868 92.3977 53.9424 92.1841 53.8423C91.9828 53.6762 91.7916 53.5183 91.5903 53.3522C91.389 53.1861 91.1978 53.0283 90.9965 52.8621C90.7952 52.696 90.604 52.5382 90.4027 52.3721C89.8424 51.5543 89.2664 50.7659 88.0894 50.962C87.8881 50.7959 87.6968 50.6381 87.4956 50.4719C87.2943 50.3058 87.103 50.148 86.9017 49.9819C86.7004 49.8157 86.5092 49.6579 86.3079 49.4918C85.7476 48.6741 85.1716 47.8857 83.9946 48.0817C83.7933 47.9156 83.6021 47.7578 83.4008 47.5917C83.2775 46.7877 82.6863 47.1966 82.2742 47.1526C82.0729 46.9864 81.8817 46.8286 81.6804 46.6625C81.3874 45.8285 80.788 45.5707 79.9609 45.7425C79.7596 45.5764 79.5684 45.4186 79.3671 45.2525C79.074 44.4184 78.4746 44.1606 77.6475 44.3325C77.4463 44.1664 77.255 44.0085 77.0537 43.8424C76.9304 43.0385 76.3392 43.4473 75.9272 43.4033C75.7259 43.2372 75.5346 43.0794 75.3333 42.9132C75.132 42.7471 74.9408 42.5893 74.7395 42.4232C74.6162 41.6192 74.025 42.0281 73.6129 41.9841C73.4117 41.8179 73.2204 41.6601 73.0191 41.494C72.8178 41.3279 72.6266 41.1701 72.4253 41.0039C72.302 40.2 71.7108 40.6088 71.2987 40.5649C71.2204 40.424 71.1503 40.2732 71.072 40.1323C70.709 39.5367 69.643 39.5368 69.7344 38.5547C70.3849 38.6686 71.0355 38.7825 71.686 38.8963C71.8872 39.0625 72.0785 39.2203 72.5427 39.5188C72.7133 39.5581 72.6109 39.4567 72.5186 39.3635C72.4438 39.4541 72.3774 39.5346 72.3026 39.6252C72.4208 39.6973 72.5306 39.7795 72.647 39.8333C72.6662 39.8407 72.7475 39.7217 72.5427 39.5188C72.0877 39.2194 71.8872 39.0625 71.686 38.8963C71.6779 38.4243 72.3989 37.9197 71.5983 37.4957C72.0644 37.1359 72.5524 36.8112 72.9673 36.4007C73.0771 36.2882 73.0331 35.8289 72.9023 35.7209C72.2445 35.1443 71.5667 34.551 70.8119 34.1227C70.4593 33.9247 69.8623 34.1765 70.4521 33.4619C71.3758 32.3631 71.3679 32.2804 72.7098 32.8379C73.4531 33.1469 74.1631 33.3014 75.604 33.2469C75.8327 33.2157 75.6393 33.1323 75.442 33.1048C75.2824 33.083 75.1105 33.1273 74.9451 33.1431C75.0821 33.3154 75.2004 33.5822 75.371 33.6214C75.5608 33.6681 75.8049 33.5058 75.604 33.2469C74.5422 32.9036 74.1549 32.6347 73.7445 32.4145C73.3048 32.1785 72.8161 32.012 72.3912 31.7375C72.2136 31.6248 72.0358 31.3173 72.0624 31.1108C72.0742 30.9429 72.3579 30.7118 72.5574 30.6649C74.6668 30.1385 76.6116 30.9906 78.5763 31.47C79.8677 31.7913 81.1767 32.1017 82.4541 32.4708C84.0562 32.9385 85.5762 33.7107 87.0677 34.4764C92.4567 37.2235 97.1814 40.9705 101.558 45.0566C103.645 47.0074 106.02 48.8658 107.257 51.621C109.633 53.2939 110.738 56.0247 112.601 58.1545C114.099 59.865 114.897 62.1895 115.993 64.2537C117.136 66.4061 117.939 68.7022 118.885 70.9292C119.196 71.6595 119.401 72.3536 119.584 73.1055C119.739 73.7489 120.021 74.3799 120.292 74.9843C120.834 76.1839 120.802 77.5959 121.298 78.7072C121.865 79.9877 121.678 81.322 122.134 82.5019C123.289 85.4689 123.043 88.6163 123.521 91.6666C123.614 92.251 123.486 92.8564 124.083 93.3741C124.385 93.6325 124.537 94.5357 124.319 94.8717C123.584 96.0081 123.981 97.1565 124.176 98.2225C124.74 101.311 124.5 104.421 124.358 107.484C124.255 109.895 124.517 112.437 123.545 114.783C123.941 116.784 123.186 118.683 122.983 120.63C122.787 122.456 122.291 124.247 121.907 126.045C121.645 127.275 121.411 128.512 121.062 129.704C120.733 130.82 120.037 131.878 119.913 133.002C119.726 134.633 118.759 135.959 118.504 137.559C118.344 138.594 117.581 139.529 117.12 140.528C116.521 141.827 115.893 143.111 115.39 144.438C114.265 147.401 112.483 150 110.967 152.75C110.453 153.68 109.385 154.144 108.903 155.209C108.445 156.236 107.452 156.896 106.415 157.394C106.214 157.228 106.022 157.07 105.821 156.904C105.796 156.647 105.858 156.326 105.729 156.134C105.373 155.612 105.274 156.224 105.042 156.321C104.829 156.415 104.486 156.513 104.355 156.405C103.232 155.521 103.4 156.691 102.877 157.14C101.866 157.422 101.167 157.674 100.481 157.962C100.16 158.095 99.4932 157.714 99.5784 158.41C99.6069 158.611 100.282 158.788 100.677 158.843C100.968 158.889 101.29 158.663 101.595 158.653C101.899 158.642 102.395 158.882 102.486 158.762C102.783 158.382 102.94 157.894 103.108 157.423C103.123 157.385 102.793 157.231 102.86 157.151C103.535 157.132 104.207 156.892 104.373 157.08C105.019 157.824 105.335 156.96 105.804 156.915C106.005 157.081 106.196 157.239 106.397 157.405C106.423 157.672 106.574 158.084 106.454 158.188C104.925 159.548 103.354 160.867 101.794 162.193C101.675 162.297 101.584 162.417 101.474 162.53C101.629 162.598 101.789 162.722 101.937 162.717C105.622 162.374 109.346 162.258 112.96 161.57C114.663 161.249 116.449 161.115 118.065 160.571C119.943 159.946 121.919 160.063 123.707 159.475C125.342 158.929 127.166 158.81 128.609 157.513C129.821 156.424 131.362 157.324 131.567 158.982C131.65 159.651 131.522 159.96 130.773 159.985C129.655 160.018 130.193 160.411 130.62 160.806C130.813 160.982 131.072 161.365 131.003 161.511C129.793 163.981 128.115 165.727 125.249 166.576C122.383 167.434 119.542 168.55 116.775 169.76C116.544 169.857 116.313 170.064 116.09 170.058C113.575 169.928 111.273 171.056 108.825 171.337C107.55 171.487 106.316 171.957 105.051 172.199C103.776 172.441 102.411 172.22 101.272 173.098C101.03 173.288 100.443 173.353 100.234 173.197C98.9239 172.201 97.0107 172.356 95.9628 170.899C95.8871 170.786 95.838 170.661 95.7798 170.537C96.0151 170.477 96.2635 170.361 96.4966 170.376C96.7766 170.395 97.1768 171.284 97.2454 170.258C97.278 169.726 97.1242 169.185 97.1283 168.647C97.1282 168.452 97.3057 168.175 97.4815 168.075C97.834 167.884 98.2329 167.79 98.6182 167.651C98.1259 167.253 97.6743 166.796 97.1356 166.495C96.979 166.408 96.5579 166.755 96.2789 166.939C96.1399 167.036 96.0691 167.265 95.9274 167.334C95.5373 167.52 95.6178 168.457 94.842 168.003C94.1542 167.596 93.0135 167.687 93.0886 166.438C93.1372 165.59 92.5606 164.699 93.2978 163.878C93.4232 163.736 93.2669 163.362 93.3166 163.107C93.4406 162.464 92.1107 162.323 92.7779 161.545C93.4192 160.789 92.1864 160.499 92.4044 159.773C92.5729 159.21 92.5083 158.438 92.236 157.917C91.0503 155.602 91.4468 153.061 91.0384 150.635C90.9059 149.831 90.7432 149.003 90.8347 148.216C90.9149 147.504 90.9422 146.917 90.6522 146.213C90.3877 145.58 90.47 144.793 90.4015 144.077C90.3241 143.269 90.21 142.464 90.1786 141.651C90.1506 140.875 90.3432 140.078 90.216 139.33C90.1129 138.737 90.2417 138.243 90.3092 137.69C90.5494 135.841 90.7043 133.972 90.8783 132.111C90.9685 131.212 90.993 131.275 92.5047 130.314C92.9853 130.009 93.1529 129.242 93.5315 128.742C94.2314 127.822 94.2201 127.897 95.2116 128.572C96.2517 129.27 96.777 130.109 96.8283 131.421C96.9146 133.581 97.6177 135.794 97.3068 137.873C96.91 140.506 97.4715 142.983 97.6407 145.525C97.7328 146.972 98.3226 148.389 98.5258 149.834C98.6417 150.658 99.0997 151.569 98.3534 152.391C98.2445 152.513 98.3624 152.872 98.4394 153.096C98.5875 153.481 98.8256 153.838 98.9653 154.233C99.2903 155.11 98.7091 156.204 99.5974 156.962C100.401 156.348 101.214 155.741 102.017 155.127C102.284 154.916 102.541 154.697 103.071 154.609C103.241 154.648 103.139 154.547 103.047 154.454C102.972 154.544 102.905 154.625 102.831 154.715C102.949 154.788 103.059 154.87 103.175 154.923C103.194 154.931 103.276 154.812 103.071 154.609C102.973 154.173 103.067 153.794 103.307 153.595C105.201 152.069 106.449 150.485 107.902 148.038C108.948 146.279 109.214 144.121 110.796 142.635C111.025 142.418 110.759 141.767 110.908 141.391C111.668 139.446 112.445 137.499 113.13 135.543C113.421 134.708 113.358 133.667 113.783 132.783C113.814 132.715 113.737 132.592 113.767 132.515C114.053 131.821 114.357 131.124 114.652 130.438C113.69 129.779 114.573 128.934 114.502 128.19C114.427 127.502 114.904 126.771 115.104 126.047C115.193 125.723 115.216 125.378 115.221 125.044C115.241 123.216 114.919 121.309 115.348 119.59C115.708 118.128 115.033 116.691 115.51 115.478C116.063 114.081 115.408 112.855 115.582 111.578C116.202 107.013 115.014 102.548 114.823 98.0331C114.8 97.4977 114.351 96.6878 115.494 96.7082C115.467 96.5254 115.45 96.3509 115.423 96.168C114.573 96.3885 114.715 95.7445 114.53 95.2617C113.599 92.8943 113.452 91.555 113.937 88.9687C113.997 88.6292 113.905 88.2487 113.835 87.9032C113.819 87.8306 113.55 87.7358 113.471 87.7804C113.242 87.9043 112.913 88.5383 112.816 87.908C112.574 86.448 112.616 84.9424 111.371 83.8564C112.129 82.6715 110.634 82.2584 110.533 81.3875C110.423 80.434 110.263 79.5409 109.737 78.6921C109.212 77.8525 108.87 76.8933 108.449 75.9881C108.379 75.8372 108.344 75.6644 108.318 75.4908C108.188 74.6134 108.507 73.489 107.078 73.3755C107.067 70.9386 104.841 69.8632 103.762 68.0755C102.717 66.3587 101.365 64.8287 100.171 63.2003C99.4782 62.2562 98.8277 61.271 98.1492 60.1865C98.1457 60.1498 98.1527 60.2233 98.1607 60.3059C98.294 60.2468 98.4476 60.2043 98.549 60.1019C98.5831 60.0709 98.4737 59.8959 98.4255 59.78C98.3232 59.8733 98.23 59.9656 98.1392 60.1782C97.5568 59.8076 96.973 59.3258 96.2382 58.5248C96.3777 58.53 96.5437 58.8107 96.6246 58.7844C96.9041 58.7021 97.1555 58.5204 97.4196 58.3746C97.2406 58.1507 97.0961 57.8031 96.8769 57.7406C96.7054 57.6921 96.4379 57.9958 96.2382 58.5248C95.223 58.6683 95.1831 57.4763 94.5559 56.8319C94.6976 56.7627 94.8385 56.6843 94.9893 56.6142C94.929 56.5644 94.7697 56.4499 94.6113 56.3445ZM78.008 42.4811C77.9157 42.388 77.8224 42.2857 77.7209 42.1934C77.6462 42.284 77.5797 42.3645 77.5049 42.4551C77.6231 42.5272 77.7329 42.6094 77.8493 42.6632C77.8685 42.6706 77.9499 42.5516 77.4821 42.2163C77.2808 42.0502 77.0896 41.8924 76.8883 41.7262C76.765 40.9223 76.1738 41.3311 75.7617 41.2871C75.5604 41.121 75.3692 40.9632 75.1679 40.7971C75.0446 39.9931 74.4534 40.402 73.7933 40.3817C73.876 40.3738 73.9494 40.3668 74.0321 40.3589C73.973 40.2255 73.9305 40.0719 73.8281 39.9705C73.797 39.9364 73.6221 40.0458 73.5062 40.094C73.5994 40.1963 73.6918 40.2894 74.0238 40.3689C74.1471 41.1728 74.7383 40.764 75.1504 40.808C75.3517 40.9741 75.5429 41.132 75.7442 41.2981C75.8675 42.102 76.4587 41.6932 76.8708 41.7372C77.0896 41.8923 77.29 42.0493 78.008 42.4811ZM79.7275 43.4011C79.6352 43.308 79.5419 43.2057 79.4404 43.1134C79.3657 43.204 79.2992 43.2845 79.2245 43.3751C79.3426 43.4472 79.4524 43.5294 79.5688 43.5831C79.5881 43.5906 79.6694 43.4716 78.9628 43.1591C79.0454 43.1512 79.1189 43.1442 79.2016 43.1363C79.1425 43.0029 79.1 42.8494 78.9976 42.7479C78.9665 42.7138 78.7916 42.8233 78.6757 42.8714C78.7772 42.9637 78.8704 43.066 79.7275 43.4011ZM80.922 44.0654C81.1233 44.2315 81.3145 44.3894 82.0417 44.8203C81.9494 44.7272 81.8562 44.6249 81.7546 44.5327C81.6799 44.6232 81.6134 44.7037 81.5387 44.7943C81.6568 44.8664 81.7666 44.9486 81.883 45.0024C81.9023 45.0098 81.9836 44.8908 81.5158 44.5555C81.3145 44.3894 81.1233 44.2315 80.6832 44.0883C80.7658 44.0804 80.8485 44.0725 80.922 44.0654C80.8629 43.932 80.8204 43.7785 80.718 43.6771C80.6869 43.643 80.512 43.7524 80.3961 43.8006C80.4967 43.8837 80.5899 43.986 80.922 44.0654ZM83.7612 45.7403C83.6689 45.6472 83.5757 45.5449 83.4741 45.4526C83.3994 45.5432 83.3329 45.6237 83.2582 45.7143C83.3763 45.7864 83.4861 45.8686 83.6025 45.9224C83.6218 45.9298 83.7031 45.8108 82.9965 45.4983C83.0792 45.4904 83.1526 45.4834 83.2353 45.4755C83.1762 45.3421 83.1337 45.1886 83.0313 45.0871C83.0002 45.053 82.8253 45.1625 82.7094 45.2106C82.8101 45.2937 82.9033 45.396 83.7612 45.7403ZM84.9548 46.3955C85.1561 46.5616 85.3474 46.7194 85.5486 46.8855C85.7499 47.0517 85.9412 47.2095 86.6684 47.6404C86.576 47.5473 86.4828 47.445 86.3813 47.3527C86.3065 47.4433 86.2401 47.5238 86.1653 47.6144C86.2835 47.6865 86.3933 47.7687 86.5097 47.8225C86.5289 47.8299 86.6102 47.7109 86.1425 47.3756C85.9412 47.2095 85.7499 47.0517 85.5486 46.8855C85.3474 46.7194 85.1561 46.5616 84.716 46.4183C84.7987 46.4104 84.8722 46.4034 84.9548 46.3955C84.8957 46.2621 84.8532 46.1085 84.7508 46.0071C84.7197 45.973 84.5448 46.0824 84.4289 46.1306C84.5304 46.2229 84.6228 46.316 84.9548 46.3955ZM87.862 48.2956C88.0633 48.4617 88.2545 48.6195 88.4558 48.7857C88.6571 48.9518 88.8483 49.1096 89.5755 49.5406C89.4832 49.4474 89.39 49.3451 89.2884 49.2529C89.2137 49.3434 89.1472 49.424 89.0725 49.5145C89.1906 49.5867 89.3004 49.6689 89.4168 49.7226C89.4361 49.73 89.5174 49.611 89.0496 49.2757C88.8483 49.1096 88.6571 48.9518 88.4558 48.7857C88.2545 48.6195 88.0633 48.4617 87.6231 48.3184C87.6966 48.3114 87.7793 48.3035 87.862 48.2956C87.8029 48.1622 87.7604 48.0087 87.6579 47.9072C87.6269 47.8731 87.452 47.9826 87.3361 48.0307C87.4275 48.1147 87.5207 48.217 87.862 48.2956ZM100.788 58.7938C100.695 58.7007 100.602 58.5984 100.5 58.5062C100.426 58.5967 100.359 58.6772 100.285 58.7678C100.403 58.84 100.512 58.9221 100.629 58.9759C100.648 58.9833 100.729 58.8643 100.023 58.5519C100.105 58.544 100.179 58.5369 100.262 58.529C100.203 58.3956 100.16 58.2421 100.058 58.1407C100.027 58.1066 99.8516 58.216 99.7357 58.2642C99.8281 58.3573 99.9296 58.4496 100.788 58.7938ZM109.679 74.9897C109.772 74.8974 109.875 74.8042 109.967 74.7026C109.876 74.6279 109.796 74.5614 109.705 74.4867C109.633 74.6048 109.551 74.7146 109.497 74.831C109.49 74.8503 109.609 74.9316 109.921 74.225C109.929 74.3077 109.936 74.3812 109.944 74.4638C110.077 74.4047 110.231 74.3622 110.332 74.2598C110.367 74.2287 110.257 74.0538 110.209 73.9379C110.116 74.0302 110.013 74.1235 109.679 74.9897ZM107.753 56.2177C107.445 55.9042 107.095 55.5391 106.737 55.1932C106.696 55.1508 106.488 55.2078 106.488 55.2078C106.486 55.3841 106.452 55.6006 106.539 55.7406C106.715 56.0296 106.944 56.2858 107.179 56.5228C107.252 56.5993 107.428 56.601 107.557 56.5887C107.602 56.5843 107.636 56.4513 106.231 55.2324C106.314 55.2245 106.387 55.2175 106.47 55.2095C106.411 55.0762 106.368 54.9226 106.266 54.8212C106.235 54.7871 106.06 54.8965 105.944 54.9447C106.045 55.037 106.139 55.1393 107.753 56.2177ZM105.807 53.9938C105.783 53.7458 105.834 53.5091 105.74 53.3976C104.686 52.1637 103.696 50.8309 102.482 49.7698C101.876 49.2439 101.68 48.3635 100.717 48.0848C99.9452 47.8621 99.1812 47.24 98.9594 46.2787C97.2144 46.1583 97.0617 44.078 95.649 43.555C93.93 42.9316 92.6758 41.6427 91.3778 40.4784C89.928 39.1804 87.6062 39.1338 86.6744 37.1466C86.6398 37.0757 86.5116 36.9953 86.4665 37.0089C85.2311 37.5628 84.6906 35.9831 83.6075 36.096C82.8813 34.9976 81.5316 35.4234 80.5874 34.8556C80.4601 34.7843 80.2375 34.8798 80.0538 34.8974C80.133 35.0474 80.1865 35.2184 80.2898 35.329C80.4753 35.5245 80.6718 35.7374 80.9138 35.844C85.4705 37.8365 89.5049 40.667 93.4099 43.6952C93.9105 44.083 94.3329 44.7192 94.8832 44.8519C95.8977 45.0885 96.3815 45.9785 97.2299 46.4164C98.2147 46.9246 99.0449 47.7536 99.353 48.9385C99.3946 49.0828 99.5251 49.2835 99.6589 49.3263C101.903 50.0107 102.877 52.0495 104.27 53.631C104.499 53.8873 104.808 54.1172 105.124 54.226C105.307 54.2919 105.583 54.0801 79.5674 35.0459C79.738 34.8905 79.8836 34.7654 80.02 34.6411C79.8918 34.5607 79.7456 34.3893 79.6271 34.4099C79.4075 34.4402 79.1985 34.5807 78.985 34.6753C79.1627 34.788 79.3312 34.9017 105.807 53.9938ZM96.634 50.9414C96.8804 50.2226 97.0403 49.7623 97.2002 49.3021C96.9709 49.2313 96.7044 49.0622 96.5059 49.1183C95.8643 49.2909 96.2018 49.8148 96.2102 50.194C96.2178 50.3694 96.3906 50.529 96.634 50.9414ZM111.812 76.1575C111.479 76.0689 111.253 75.933 111.184 75.9951C110.861 76.2949 110.57 76.6472 110.278 76.981C110.43 77.0221 110.647 77.1589 110.724 77.0959C111.088 76.8293 111.41 76.5111 111.812 76.1575ZM98.3214 52.3001C98.718 52.086 98.8597 52.0168 99.0005 51.9385C98.8329 51.834 98.6785 51.6727 98.4995 51.6435C98.3766 51.6181 98.2153 51.7726 98.0745 51.851C98.1756 52.036 98.2767 52.221 98.3214 52.3001ZM105.727 155.245C106.025 155.262 106.27 155.304 106.507 155.263C106.581 155.256 106.624 155.029 106.677 154.903C106.432 154.862 106.194 154.801 105.954 154.806C105.89 154.812 105.837 155.039 105.727 155.245ZM118.35 72.2224C118.27 72.156 118.209 72.1062 118.139 72.048C118.086 72.1736 118.024 72.3 118.008 72.4221C118.003 72.4689 118.13 72.5309 118.19 72.5808C118.244 72.4644 118.297 72.3388 118.35 72.2224ZM113.585 86.1567C113.48 86.2315 113.367 86.3072 113.254 86.383C113.324 86.4411 113.399 86.5452 113.444 86.5316C113.57 86.4917 113.673 86.3985 113.787 86.332C113.735 86.2721 113.665 86.2231 113.585 86.1567ZM109.087 67.5472C108.983 67.6221 108.87 67.6978 108.757 67.7735C108.827 67.8317 108.902 67.9357 108.947 67.9222C109.073 67.8823 109.175 67.7891 109.29 67.7225C109.229 67.6727 109.168 67.6137 109.087 67.5472ZM104.403 65.6689C104.507 65.5941 104.62 65.5183 104.733 65.4426C104.663 65.3845 104.588 65.2804 104.543 65.294C104.417 65.3338 104.315 65.4271 104.2 65.4936C104.252 65.5443 104.322 65.6025 104.403 65.6689ZM103.516 60.4701C103.412 60.5449 103.298 60.6207 103.185 60.6964C103.256 60.7545 103.33 60.8586 103.375 60.845C103.501 60.8052 103.604 60.712 103.718 60.6454C103.657 60.5864 103.596 60.5365 103.516 60.4701ZM109.318 146.66C109.398 146.727 109.459 146.777 109.529 146.835C109.582 146.709 109.644 146.583 109.66 146.461C109.665 146.414 109.539 146.352 109.478 146.302C109.424 146.418 109.372 146.544 109.318 146.66ZM99.4995 61.1233C99.5801 61.1898 99.6405 61.2396 99.7109 61.2977C99.7638 61.1722 99.8258 61.0457 99.842 60.9237C99.8468 60.8769 99.7203 60.8148 99.6599 60.765C99.6062 60.8814 99.5533 61.0069 99.4995 61.1233ZM96.9557 56.046C97.0598 55.9711 97.1731 55.8954 97.2863 55.8197C97.2159 55.7615 97.141 55.6575 97.096 55.671C96.97 55.7109 96.8677 55.8041 96.7536 55.8707C96.8056 55.9306 96.8752 55.9795 96.9557 56.046ZM99.5885 159.484C99.518 159.426 99.4432 159.322 99.3981 159.336C99.2722 159.376 99.1699 159.469 99.0557 159.535C99.1262 159.594 99.201 159.698 99.2461 159.684C99.3629 159.645 99.4744 159.551 99.5885 159.484ZM99.9771 164.416C99.9022 164.312 99.8265 164.198 99.7508 164.085C99.6926 164.156 99.5885 164.23 99.6021 164.276C99.642 164.402 99.7352 164.504 99.8017 164.618C99.8616 164.566 99.9198 164.495 99.9771 164.416ZM78.285 34.3344C78.2102 34.2303 78.1344 34.1171 78.0587 34.0038C78.0006 34.0743 77.8965 34.1491 77.9101 34.1942C77.9499 34.3201 78.0432 34.4224 78.1097 34.5366C78.1687 34.4753 78.2177 34.4057 78.285 34.3344Z" fill="#FFDD00"/>
    <path d="M85.2644 49.6286C85.0898 49.6453 84.8489 49.7425 84.7491 49.6687C83.4525 48.6155 81.5841 48.3679 80.6469 46.8076C81.0051 46.7734 81.3634 46.7391 81.7216 46.7048C81.9229 46.8709 82.1141 47.0287 82.3154 47.1949C82.4387 47.9988 83.0299 47.59 83.442 47.6339C83.6433 47.8001 83.8345 47.9579 84.0358 48.124C84.445 48.6225 84.8542 49.121 85.2644 49.6286Z" fill="#FFDD00"/>
    <path d="M92.1952 53.8598C92.2295 54.2181 92.2638 54.5763 92.298 54.9345C91.3117 54.1205 90.3254 53.3065 89.3491 52.5008C89.7073 52.4665 90.0656 52.4322 90.4238 52.3979C90.6251 52.564 90.8163 52.7219 91.0176 52.888C91.2189 53.0541 91.4101 53.2119 91.6114 53.3781C91.8127 53.5442 92.0031 53.6928 92.1952 53.8598Z" fill="#FFDD00"/>
    <path d="M88.1713 51.5288C86.7017 51.6694 86.0638 50.5255 85.2734 49.6278C85.6316 49.5935 85.9898 49.5592 86.3481 49.5249C86.5494 49.6911 86.7406 49.8489 86.9419 50.015C87.1432 50.1811 87.3344 50.3389 87.5357 50.5051C87.737 50.6712 87.9282 50.829 88.1295 50.9951C88.1371 51.1705 88.1538 51.3451 88.1713 51.5288Z" fill="#FFDD00"/>
    <path d="M78.3336 45.3976C77.1566 45.5937 76.5806 44.8053 76.0203 43.9875C76.3785 43.9533 76.7367 43.919 77.095 43.8847C77.2963 44.0508 77.4875 44.2086 77.6888 44.3748C77.9068 44.7154 78.1248 45.0561 78.3336 45.3976Z" fill="#FFDD00"/>
    <path d="M75.4355 43.4968C74.6075 43.6594 74.0081 43.4016 73.716 42.5768C74.0742 42.5425 74.4324 42.5082 74.7907 42.4739C74.992 42.64 75.1832 42.7979 75.3845 42.964C75.4012 43.1385 75.4188 43.3222 75.4355 43.4968Z" fill="#FFDD00"/>
    <path d="M73.1223 42.0866C72.2943 42.2493 71.6949 41.9915 71.4027 41.1666C71.761 41.1323 72.1192 41.098 72.4775 41.0637C72.6788 41.2299 72.87 41.3877 73.0713 41.5538C73.088 41.7284 73.1056 41.9121 73.1223 42.0866Z" fill="#FFDD00"/>
    <path d="M80.0529 46.3178C79.225 46.4805 78.6256 46.2227 78.3334 45.3978C78.6916 45.3635 79.0499 45.3292 79.4081 45.295C79.6094 45.4611 79.8006 45.6189 80.0019 45.785C80.0186 45.9596 80.0362 46.1433 80.0529 46.3178Z" fill="#FFDD00"/>
    <path d="M94.6632 56.8864C94.5048 56.781 94.3464 56.6757 94.1788 56.5712C94.3205 56.502 94.4614 56.4237 94.6122 56.3536C94.6289 56.5281 94.6456 56.7027 94.6632 56.8864Z" fill="#FFDD00"/>
    <path d="M92.8239 55.1992C92.7657 55.2697 92.6936 55.3878 92.6652 55.3813C92.5396 55.3284 92.4298 55.2462 92.3208 55.1732C92.3956 55.0826 92.4621 55.0021 92.5368 54.9115C92.6392 55.013 92.7316 55.1061 92.8239 55.1992Z" fill="#FFDD00"/>
    <path d="M88.7551 52.0106C88.5538 51.8445 88.3626 51.6867 88.1613 51.5206C88.3626 51.6867 88.5639 51.8528 88.7551 52.0106Z" fill="#FFDD00"/>
    <path d="M76.0202 43.9877C75.8189 43.8216 75.6277 43.6637 75.4264 43.4976C75.6101 43.48 75.7846 43.4633 75.9683 43.4457C75.9859 43.6294 76.0026 43.804 76.0202 43.9877Z" fill="#FFDD00"/>
    <path d="M73.716 42.5768C73.5147 42.4107 73.3235 42.2528 73.1222 42.0867C73.3059 42.0691 73.4804 42.0524 73.6642 42.0348C73.6817 42.2186 73.6984 42.3931 73.716 42.5768Z" fill="#FFDD00"/>
    <path d="M71.4027 41.1666C71.2443 41.0613 71.0859 40.9559 70.9183 40.8515C71.06 40.7823 71.2009 40.7039 71.3517 40.6339C71.3684 40.8084 71.3851 40.9829 71.4027 41.1666Z" fill="#FFDD00"/>
</svg>