<svg xmlns="http://www.w3.org/2000/svg" width="165" height="165" viewBox="0 0 165 165" fill="none">
  <path d="M55.9128 95.3079C55.4961 95.5341 55.0793 95.7603 54.4917 96.0031C54.6671 96.1223 54.9556 96.2079 55.2441 96.2934C55.5738 96.3911 56.0336 96.4736 55.7988 96.9331C55.5922 97.3426 55.175 97.071 54.872 96.9588C54.6267 96.8636 54.4082 96.6778 54.2063 96.4969C54.1613 96.4522 54.2529 96.2641 54.4834 96.0006C54.7042 95.528 54.6886 95.1423 54.0573 95.139C53.9239 95.1353 53.7855 94.9822 53.6522 94.9023C53.4873 94.8534 53.3307 94.807 53.1659 94.7581C53.001 94.7093 52.8444 94.6628 52.6795 94.614C52.5147 94.5651 52.358 94.5187 52.1932 94.4698C51.5401 94.4645 50.8973 94.4399 50.5713 93.7245C50.4064 93.6756 50.2498 93.6292 50.0849 93.5803C49.9201 93.5314 49.7635 93.485 49.5986 93.4361C49.4337 93.3873 49.2771 93.3408 49.1123 93.2919C48.4592 93.2867 47.8163 93.262 47.4904 92.5466C47.3255 92.4977 47.1689 92.4513 47.004 92.4024C46.5193 92.6309 46.5252 92.1574 46.3495 91.9484C46.1846 91.8995 46.028 91.8531 45.8631 91.8042C45.2995 91.951 44.9381 91.7183 44.7276 91.203C44.5627 91.1541 44.4061 91.1077 44.2413 91.0588C43.6776 91.2056 43.3162 90.9729 43.1057 90.4577C42.9409 90.4088 42.7842 90.3624 42.6194 90.3135C42.1347 90.542 42.1405 90.0684 41.9648 89.8594C41.8 89.8105 41.6434 89.7641 41.4785 89.7152C41.3136 89.6664 41.157 89.6199 40.9922 89.5711C40.5074 89.7995 40.5133 89.326 40.3376 89.117C40.1728 89.0681 40.0161 89.0217 39.8513 88.9728C39.6864 88.9239 39.5298 88.8775 39.3649 88.8286C38.8802 89.0571 38.8861 88.5836 38.7104 88.3746C38.6046 88.3835 38.4964 88.4008 38.3906 88.4098C37.9315 88.4306 37.5393 87.848 37.0362 88.2594C37.3378 88.573 37.6394 88.8866 37.941 89.2002C38.1059 89.249 38.2625 89.2955 38.5965 89.4393C38.6808 89.5181 38.5877 89.4995 38.5028 89.4833C38.5248 89.4091 38.5443 89.3431 38.5663 89.269C38.6492 89.307 38.7345 89.3368 38.8067 89.3806C38.8179 89.3884 38.7828 89.4766 38.5965 89.4393C38.2654 89.3008 38.1059 89.249 37.941 89.2002C37.6801 89.3694 37.6697 89.9492 37.1434 89.6677C37.1183 90.0548 37.1203 90.441 37.0487 90.8188C37.0276 90.9202 36.7605 91.0652 36.6533 91.0334C36.0961 90.8862 35.5225 90.7341 35.0106 90.4792C34.7726 90.3593 34.6906 89.9404 34.5171 90.5257C34.2565 91.4349 34.2084 91.461 35.0069 91.9891C35.4493 92.2817 35.795 92.6128 36.2954 93.4203C36.3626 93.5568 36.2458 93.4818 36.1582 93.3841C36.0875 93.3049 36.0485 93.1947 35.9963 93.0985C36.1409 93.1099 36.3301 93.0764 36.4144 93.1552C36.5098 93.2417 36.5108 93.4348 36.2954 93.4203C35.7171 92.9664 35.4277 92.8537 35.1563 92.7105C34.8655 92.557 34.5947 92.3512 34.2883 92.22C34.1613 92.1644 33.9279 92.1804 33.8248 92.2709C33.7374 92.3392 33.7155 92.5793 33.7633 92.7055C34.2519 94.052 35.4332 94.8013 36.4182 95.6986C37.069 96.2861 37.7204 96.8872 38.3921 97.4495C39.2373 98.1529 40.2187 98.6994 41.186 99.2328C44.6704 101.167 48.4568 102.37 52.3005 103.258C54.1347 103.681 56.0242 104.295 57.9851 103.957C59.7735 104.64 61.6725 104.239 63.522 104.473C65.0083 104.663 66.572 104.243 68.1036 104.083C69.7003 103.915 71.2509 103.509 72.8158 103.206C73.3294 103.107 73.7843 102.964 74.2626 102.788C74.671 102.635 75.12 102.558 75.55 102.483C76.4048 102.338 77.1648 101.801 77.9545 101.663C78.8631 101.502 79.5233 100.908 80.3359 100.723C82.3825 100.263 84.0121 98.9701 85.8548 98.1084C86.2084 97.9442 86.4923 97.6517 86.9947 97.7872C87.2474 97.8576 87.7967 97.608 87.9 97.3651C88.2506 96.5454 89.0245 96.3398 89.6787 96.054C91.5742 95.2259 93.1853 93.9504 94.807 92.7452C96.0865 91.8018 97.5725 91.0093 98.4968 89.6153C99.7362 89.0949 100.496 87.984 101.486 87.1564C102.412 86.3772 103.207 85.4474 104.049 84.5758C104.624 83.9797 105.214 83.3968 105.737 82.7672C106.226 82.1768 106.548 81.407 107.117 80.9254C107.939 80.2231 108.308 79.207 109.089 78.4789C109.595 78.0103 109.825 77.249 110.202 76.6297C110.692 75.8244 111.162 75.0088 111.702 74.2453C112.907 72.54 113.672 70.61 114.617 68.7693C114.936 68.1465 114.797 67.3922 115.202 66.7365C115.594 66.1086 115.589 65.3225 115.48 64.5727C115.315 64.5238 115.158 64.4774 114.994 64.4285C114.844 64.5097 114.691 64.6617 114.539 64.6614C114.123 64.659 114.421 64.3797 114.388 64.2176C114.361 64.0662 114.288 63.8428 114.181 63.811C113.285 63.5229 113.986 63.1838 114.039 62.7331C113.821 62.0767 113.702 61.6019 113.607 61.1208C113.561 60.8966 113.107 60.6724 113.519 60.4627C113.64 60.4043 113.985 60.7083 114.16 60.9037C114.292 61.0461 114.287 61.3047 114.394 61.4753C114.5 61.6458 114.814 61.8284 114.782 61.922C114.683 62.2245 114.474 62.49 114.279 62.755C114.263 62.7773 114.058 62.6536 114.038 62.7195C114.277 63.0951 114.393 63.5509 114.557 63.5726C115.201 63.6517 114.845 64.1424 114.993 64.4149C115.158 64.4638 115.315 64.5102 115.479 64.5591C115.634 64.475 115.915 64.4057 115.928 64.3019C116.109 62.9656 116.251 61.6224 116.402 60.2816C116.415 60.1778 116.447 60.0842 116.468 59.9829C116.563 60.0423 116.689 60.0843 116.741 60.1669C117.909 62.3066 119.217 64.3846 120.17 66.6132C120.622 67.6618 121.206 68.6868 121.503 69.7704C121.853 71.0263 122.644 72.0634 122.98 73.2573C123.284 74.3515 123.89 75.3921 123.712 76.6576C123.563 77.7209 124.622 78.2321 125.604 77.734C125.999 77.533 126.121 77.3493 125.86 76.931C125.466 76.3077 125.879 76.457 126.252 76.5452C126.419 76.5858 126.724 76.5864 126.778 76.4949C127.683 74.9247 128.02 73.3656 127.429 71.4866C126.843 69.6047 126.407 67.6416 126.05 65.684C126.018 65.5219 126.046 65.3196 125.961 65.2001C124.964 63.8734 124.734 62.1999 123.986 60.7587C123.599 60.0073 123.402 59.1597 123.069 58.3793C122.732 57.5935 122.109 56.9289 122.169 55.9829C122.184 55.7811 122.004 55.4362 121.842 55.3791C120.815 55.03 120.196 53.9273 119.014 53.8908C118.924 53.8911 118.838 53.9103 118.749 53.9242C118.803 54.0747 118.83 54.2533 118.924 54.3753C119.038 54.5211 119.671 54.4128 119.135 54.828C118.857 55.0414 118.504 55.1566 118.212 55.3568C118.105 55.4284 118.02 55.6272 118.03 55.7601C118.055 56.0232 118.15 56.2757 118.216 56.5373C117.818 56.4147 117.401 56.3362 117.039 56.1525C116.934 56.0989 116.968 55.7414 116.966 55.5211C116.968 55.4095 117.067 55.2864 117.053 55.1836C117.01 54.902 117.553 54.6009 117.019 54.3441C116.543 54.1179 116.173 53.4612 115.518 53.9619C115.072 54.3006 114.374 54.3132 114.196 55.0183C114.165 55.1391 113.903 55.1914 113.782 55.3124C113.476 55.6165 112.91 54.9418 112.73 55.5926C112.553 56.2215 111.94 55.6544 111.624 56.0405C111.379 56.3398 110.933 56.5887 110.548 56.6316C108.846 56.8356 107.604 57.9872 106.127 58.657C105.64 58.8802 105.127 59.0959 104.731 59.4357C104.371 59.7416 104.06 59.9724 103.569 60.0732C103.125 60.1615 102.726 60.496 102.309 60.7221C101.839 60.9773 101.357 61.2111 100.901 61.493C100.467 61.7633 100.102 62.1619 99.6467 62.3676C99.2849 62.5293 99.0622 62.7817 98.7846 63.0222C97.8624 63.8339 96.8982 64.6062 95.945 65.3863C95.4872 65.7662 95.5304 65.7566 95.5618 66.9362C95.5717 67.3113 95.2143 67.6851 95.0805 68.0759C94.8354 68.7969 94.8723 68.763 95.6058 69.0566C96.3698 69.3683 97.0219 69.3464 97.7575 68.8919C98.9702 68.1439 100.438 67.7137 101.46 66.779C102.753 65.593 104.313 64.9884 105.765 64.1453C106.589 63.6633 107.581 63.4641 108.445 63.0433C108.938 62.8037 109.604 62.7188 109.779 62.0083C109.805 61.9041 110.045 61.8362 110.196 61.7957C110.461 61.7352 110.744 61.7338 111.011 61.665C111.61 61.5198 111.994 60.7996 112.735 61.0059C112.695 61.6711 112.663 62.3386 112.623 63.0037C112.606 63.2274 112.58 63.4486 112.727 63.7701C112.811 63.8489 112.718 63.8302 112.633 63.814C112.655 63.7399 112.675 63.6739 112.697 63.5997C112.78 63.6377 112.865 63.6675 112.937 63.7113C112.948 63.7191 112.913 63.8074 112.727 63.7701C112.453 63.8772 112.28 64.068 112.26 64.2727C112.123 65.8687 111.717 67.1338 110.914 68.8283C110.337 70.0473 109.256 70.9868 109.026 72.3982C108.992 72.6034 108.538 72.6975 108.388 72.9175C107.604 74.0483 106.826 75.1897 106.009 76.2836C105.66 76.7496 105.068 77.0986 104.741 77.6564C104.715 77.6981 104.62 77.7013 104.589 77.7458C104.315 78.1577 104.046 78.5802 103.78 78.9945C103.065 78.711 102.929 79.5045 102.496 79.7394C102.092 79.9516 101.868 80.4814 101.546 80.8567C101.402 81.0248 101.222 81.1641 101.041 81.2899C100.049 81.9734 98.889 82.4993 98.1075 83.3661C97.4412 84.1012 96.4074 84.2611 95.9197 84.9684C95.3595 85.7843 94.4486 85.8775 93.8147 86.4428C91.5483 88.4612 88.6709 89.4556 86.1334 91.0125C85.8322 91.1967 85.2246 91.2498 85.6561 91.8664C85.5463 91.919 85.4448 91.9741 85.335 92.0268C85.1426 91.481 84.8431 91.7958 84.511 91.8722C82.8746 92.2345 82.0887 92.6472 80.8537 93.8639C80.6903 94.0217 80.4485 94.1114 80.2339 94.2003C80.1882 94.2181 80.0376 94.1062 80.0328 94.0465C80.0162 93.8757 80.2417 93.4628 79.8615 93.6415C78.9746 94.0467 78.167 94.6233 77.1157 94.343C76.747 95.1933 75.9712 94.5284 75.4578 94.7932C74.8962 95.084 74.3494 95.3255 73.6919 95.3503C73.0397 95.3722 72.3897 95.5382 71.7403 95.6416C71.6321 95.6588 71.5247 95.7032 71.4203 95.753C70.8928 96.0047 70.3957 96.5926 69.8078 95.8534C68.4721 96.7443 67.0653 95.9237 65.6911 95.9916C64.3683 96.0523 63.0348 95.8768 61.7055 95.8234C60.9346 95.7922 60.1568 95.7993 59.3144 95.8276C59.2931 95.8392 59.3358 95.816 59.3839 95.7899C59.4007 95.8845 59.434 95.984 59.4153 96.0772C59.4109 96.1072 59.275 96.1118 59.194 96.1281C59.2072 96.0379 59.2234 95.953 59.3062 95.8251C58.8893 95.6432 58.4112 95.5015 57.7031 95.3947C57.7572 95.4691 57.9717 95.4564 57.9871 95.5103C58.045 95.6934 58.0382 95.8976 58.0557 96.0956C57.8675 96.0802 57.6243 96.1291 57.5096 96.0323C57.42 95.9565 57.4875 95.6985 57.7031 95.3947C57.4079 94.7871 56.7418 95.2039 56.1588 95.0984C56.1731 95.2012 56.1821 95.307 56.1994 95.4153C56.1499 95.4006 56.0287 95.3557 55.9128 95.3079ZM42.2266 91.336C42.1417 91.3198 42.0515 91.3065 41.9637 91.2849C41.9857 91.2107 42.0053 91.1448 42.0273 91.0706C42.1102 91.1086 42.1955 91.1384 42.2677 91.1822C42.2788 91.19 42.2437 91.2783 41.8883 91.146C41.7235 91.0971 41.5669 91.0507 41.402 91.0018C40.9173 91.2303 40.9231 90.7568 40.7475 90.5477C40.5826 90.4989 40.426 90.4524 40.2611 90.4036C39.7764 90.632 39.7823 90.1585 39.5283 89.8052C39.5544 89.8533 39.5776 89.8961 39.6037 89.9441C39.509 89.9609 39.4095 89.9942 39.3164 89.9756C39.2863 89.9711 39.2818 89.8353 39.2654 89.7542C39.3556 89.7675 39.4405 89.7837 39.6061 89.9359C40.0908 89.7074 40.085 90.181 40.2607 90.39C40.4255 90.4389 40.5822 90.4853 40.747 90.5342C41.2317 90.3057 41.2259 90.7792 41.4015 90.9882C41.5669 91.0507 41.7264 91.1025 42.2266 91.336ZM43.3621 91.9371C43.2773 91.9209 43.1871 91.9076 43.0993 91.8861C43.1213 91.8119 43.1408 91.746 43.1628 91.6718C43.2457 91.7098 43.331 91.7396 43.4032 91.7834C43.4144 91.7912 43.3792 91.8794 42.9485 91.6082C42.9746 91.6563 42.9978 91.6991 43.0239 91.7472C42.9292 91.764 42.8297 91.7972 42.7366 91.7786C42.7065 91.7741 42.7019 91.6383 42.6856 91.5572C42.7734 91.5788 42.8636 91.592 43.3621 91.9371ZM44.1648 92.3454C44.3296 92.3943 44.4862 92.4407 44.9894 92.6796C44.9045 92.6634 44.8143 92.6501 44.7265 92.6285C44.7485 92.5543 44.768 92.4884 44.79 92.4142C44.8729 92.4522 44.9583 92.482 45.0305 92.5258C45.0416 92.5336 45.0065 92.6218 44.6511 92.4896C44.4862 92.4407 44.3296 92.3943 44.0894 92.2065C44.1155 92.2546 44.1416 92.3027 44.1648 92.3454C44.0701 92.3622 43.9706 92.3955 43.8775 92.3768C43.8474 92.3724 43.8428 92.2365 43.8265 92.1555C43.9089 92.1799 43.9991 92.1932 44.1648 92.3454ZM46.1249 93.2807C46.04 93.2645 45.9498 93.2512 45.862 93.2297C45.884 93.1555 45.9036 93.0896 45.9256 93.0154C46.0085 93.0534 46.0938 93.0832 46.166 93.127C46.1771 93.1348 46.142 93.223 45.7112 92.9518C45.7373 92.9999 45.7605 93.0427 45.7866 93.0908C45.692 93.1075 45.5925 93.1408 45.4993 93.1222C45.4693 93.1177 45.4647 92.9819 45.4484 92.9008C45.5308 92.9252 45.621 92.9385 46.1249 93.2807ZM46.9222 93.6919C47.087 93.7408 47.2437 93.7872 47.4085 93.8361C47.5734 93.885 47.73 93.9314 48.2331 94.1702C48.1483 94.154 48.058 94.1407 47.9703 94.1192C47.9923 94.045 48.0118 93.9791 48.0338 93.9049C48.1167 93.9429 48.202 93.9727 48.2742 94.0165C48.2854 94.0243 48.2502 94.1125 47.8949 93.9803C47.73 93.9314 47.5734 93.885 47.4085 93.8361C47.2437 93.7872 47.087 93.7408 46.8468 93.553C46.8729 93.6011 46.8961 93.6438 46.9222 93.6919C46.8275 93.7087 46.728 93.742 46.6349 93.7233C46.6048 93.7189 46.6002 93.583 46.5839 93.502C46.6717 93.5235 46.7566 93.5397 46.9222 93.6919ZM49.0304 94.5814C49.1953 94.6303 49.3519 94.6767 49.5168 94.7256C49.6816 94.7745 49.8382 94.8209 50.3414 95.0597C50.2565 95.0435 50.1663 95.0302 50.0785 95.0087C50.1005 94.9345 50.12 94.8686 50.142 94.7944C50.2249 94.8324 50.3103 94.8622 50.3825 94.906C50.3936 94.9138 50.3585 95.002 50.0031 94.8698C49.8382 94.8209 49.6816 94.7745 49.5168 94.7256C49.3519 94.6767 49.1953 94.6303 48.955 94.4425C48.9782 94.4853 49.0043 94.5333 49.0304 94.5814C48.9358 94.5982 48.8362 94.6315 48.7431 94.6128C48.713 94.6084 48.7085 94.4725 48.6921 94.3915C48.7717 94.4106 48.8619 94.4239 49.0304 94.5814ZM59.5242 97.7819C59.4394 97.7657 59.3491 97.7524 59.2614 97.7309C59.2834 97.6567 59.3029 97.5907 59.3249 97.5166C59.4078 97.5546 59.4931 97.5844 59.5653 97.6282C59.5765 97.636 59.5413 97.7242 59.1106 97.453C59.1367 97.5011 59.1599 97.5439 59.186 97.592C59.0913 97.6087 58.9918 97.642 58.8987 97.6234C58.8686 97.6189 58.864 97.4831 58.8477 97.402C58.9326 97.4182 59.0204 97.4397 59.5242 97.7819ZM71.6473 96.6812C71.6311 96.766 71.6179 96.8563 71.5963 96.944C71.5221 96.9221 71.4562 96.9025 71.382 96.8805C71.42 96.7976 71.4498 96.7123 71.4936 96.6401C71.5014 96.6289 71.5896 96.6641 71.3185 97.0948C71.3666 97.0687 71.4093 97.0455 71.4574 97.0194C71.4742 97.1141 71.5074 97.2136 71.4888 97.3067C71.4844 97.3368 71.3485 97.3414 71.2674 97.3577C71.2836 97.2728 71.2969 97.1826 71.6473 96.6812ZM60.6795 102.536C60.3948 102.483 60.0665 102.426 59.7459 102.358C59.7076 102.351 59.6623 102.217 59.6623 102.217C59.758 102.151 59.8635 102.052 59.9722 102.049C60.1949 102.039 60.419 102.069 60.6353 102.111C60.7037 102.122 60.7695 102.218 60.8101 102.293C60.8246 102.319 60.7643 102.387 59.5811 102.067C59.6072 102.115 59.6304 102.158 59.6565 102.206C59.5618 102.223 59.4623 102.256 59.3692 102.238C59.3391 102.233 59.3345 102.097 59.3182 102.016C59.406 102.038 59.4962 102.051 60.6795 102.536ZM58.748 102.291C58.6037 102.369 58.4933 102.485 58.3978 102.474C57.3354 102.352 56.2429 102.302 55.2163 102.029C54.7057 101.891 54.1526 102.108 53.646 101.684C53.2401 101.344 52.619 101.156 52.012 101.388C51.3041 100.479 50.111 101.161 49.3053 100.582C48.3321 99.8715 47.1661 99.6604 46.0522 99.3795C44.8093 99.0649 43.9294 97.8131 42.5005 98.0352C42.4491 98.0424 42.3579 98.0019 42.3488 97.9723C42.1968 97.0933 41.1346 97.3792 40.7978 96.7458C39.9302 96.7531 39.6663 95.8588 39.0085 95.5518C38.9227 95.5084 38.893 95.3516 38.835 95.2448C38.9461 95.2329 39.0592 95.1991 39.1577 95.2149C39.3328 95.2444 39.5215 95.2734 39.6688 95.3664C42.4345 97.1234 45.466 98.2866 48.5579 99.3063C48.954 99.4371 49.4572 99.4338 49.7323 99.6858C50.2349 100.153 50.8993 100.09 51.4508 100.392C52.091 100.744 52.8495 100.892 53.6104 100.625C53.7046 100.594 53.8623 100.592 53.9349 100.649C55.1347 101.624 56.6073 101.405 57.9843 101.585C58.2084 101.616 58.448 101.7 58.6238 101.833C58.727 101.908 58.7129 102.137 38.7372 94.9243C38.715 95.0747 38.7002 95.2003 38.6824 95.3206C38.5913 95.2801 38.4439 95.2633 38.4115 95.191C38.3473 95.0598 38.3471 94.8939 38.3203 94.7424C38.4473 94.798 38.5714 94.8483 58.748 102.291ZM53.7044 98.4017C53.4023 98.8008 53.2096 99.0576 53.0169 99.3143C52.8938 99.2151 52.7033 99.1317 52.6609 99.0026C52.5192 98.5884 52.9297 98.58 53.14 98.4451C53.2387 98.3847 53.3895 98.4204 53.7044 98.4017ZM73.0703 97.4169C72.8994 97.2675 72.7418 97.1939 72.7507 97.1338C72.7955 96.8467 72.881 96.5581 72.9558 96.2754C73.0343 96.3435 73.1889 96.4118 73.1829 96.4773C73.1712 96.7742 73.1157 97.0671 73.0703 97.4169ZM55.0679 98.8238C55.0969 99.1194 55.1112 99.2223 55.1202 99.328C55.0014 99.2749 54.8564 99.2498 54.7746 99.1628C54.7155 99.105 54.7406 98.9599 54.7316 98.8541C54.8699 98.8413 55.0082 98.8285 55.0679 98.8238ZM114.052 64.9879C114.172 65.1443 114.284 65.263 114.349 65.4077C114.372 65.4505 114.264 65.5575 114.215 65.6326C114.102 65.5139 113.982 65.4064 113.896 65.2733C113.875 65.2359 113.98 65.1236 114.052 64.9879ZM73.326 102.438C73.26 102.419 73.2105 102.404 73.1528 102.387C73.202 102.312 73.2483 102.231 73.309 102.178C73.3329 102.158 73.4133 102.204 73.4628 102.219C73.4189 102.291 73.3698 102.366 73.326 102.438ZM79.1872 94.706C79.1898 94.6216 79.1895 94.5318 79.1892 94.4421C79.2469 94.4592 79.3313 94.4618 79.3405 94.4914C79.365 94.5749 79.3517 94.6651 79.3574 94.752C79.3055 94.7456 79.2531 94.7256 79.1872 94.706ZM67.3622 99.0966C67.3648 99.0121 67.3646 98.9224 67.3643 98.8326C67.422 98.8497 67.5064 98.8523 67.5155 98.8819C67.5401 98.9654 67.5268 99.0557 67.5325 99.1425C67.483 99.1279 67.4282 99.1161 67.3622 99.0966ZM64.6118 97.2275C64.6092 97.3119 64.6094 97.4017 64.6097 97.4915C64.552 97.4744 64.4676 97.4717 64.4585 97.4421C64.4339 97.3586 64.4472 97.2684 64.4416 97.1815C64.4881 97.1909 64.5458 97.208 64.6118 97.2275ZM61.4442 98.656C61.4468 98.5716 61.4466 98.4818 61.4463 98.392C61.504 98.4091 61.5884 98.4117 61.5975 98.4414C61.6221 98.5249 61.6088 98.6151 61.6145 98.7019C61.5597 98.6902 61.5102 98.6755 61.4442 98.656ZM110.682 70.1092C110.748 70.1288 110.797 70.1434 110.855 70.1605C110.806 70.2356 110.76 70.3161 110.699 70.3698C110.675 70.3896 110.595 70.3434 110.545 70.3287C110.589 70.2565 110.638 70.1814 110.682 70.1092ZM60.3233 96.2208C60.3892 96.2403 60.4387 96.255 60.4964 96.2721C60.4472 96.3472 60.401 96.4277 60.3402 96.4814C60.3164 96.5012 60.236 96.4549 60.1865 96.4403C60.2303 96.3681 60.2795 96.293 60.3233 96.2208ZM56.6124 96.699C56.6098 96.7834 56.6101 96.8732 56.6104 96.963C56.5527 96.9459 56.4683 96.9433 56.4591 96.9136C56.4346 96.8301 56.4479 96.7399 56.4422 96.6531C56.4941 96.6595 56.5465 96.6795 56.6124 96.699ZM114.11 60.0729C114.052 60.0558 113.968 60.0532 113.959 60.0236C113.934 59.9401 113.948 59.8499 113.942 59.763C114 59.7801 114.084 59.7827 114.093 59.8123C114.115 59.8905 114.104 59.9861 114.11 60.0729ZM116.948 58.4706C116.864 58.4679 116.774 58.4682 116.684 58.4685C116.701 58.4108 116.704 58.3264 116.733 58.3173C116.817 58.2927 116.907 58.306 116.994 58.3003C116.988 58.3523 116.97 58.41 116.948 58.4706ZM37.8764 94.4853C37.792 94.4827 37.7022 94.483 37.6124 94.4833C37.6295 94.4256 37.6321 94.3412 37.6618 94.332C37.7453 94.3074 37.8355 94.3207 37.9224 94.3151C37.9106 94.3699 37.8906 94.4223 37.8764 94.4853Z" fill="#FFDD00"/>
  <path d="M48.8034 92.6713C48.7483 92.5698 48.7128 92.4023 48.6357 92.375C47.583 92.054 46.7602 91.124 45.5626 91.186C45.6757 91.3944 45.7887 91.6028 45.9018 91.8112C46.0667 91.86 46.2233 91.9065 46.3882 91.9553C46.8729 91.7269 46.867 92.2004 47.0427 92.4094C47.2076 92.4583 47.3642 92.5047 47.5291 92.5536C47.9521 92.5938 48.3751 92.634 48.8034 92.6713Z" fill="#FFDD00"/>
  <path d="M53.6659 94.902C53.8743 94.7889 54.0826 94.6758 54.291 94.5627C53.4832 94.3232 52.6754 94.0837 51.8758 93.8467C51.9889 94.0551 52.102 94.2635 52.2151 94.4719C52.3799 94.5208 52.5366 94.5672 52.7014 94.6161C52.8663 94.6649 53.0229 94.7114 53.1878 94.7602C53.3526 94.8091 53.5039 94.8584 53.6659 94.902Z" fill="#FFDD00"/>
  <path d="M50.9112 93.5607C50.4472 92.7058 49.5873 92.7782 48.8058 92.6766C48.9189 92.885 49.032 93.0933 49.1451 93.3017C49.31 93.3506 49.4666 93.397 49.6315 93.4459C49.7963 93.4948 49.9529 93.5412 50.1178 93.5901C50.2827 93.639 50.4393 93.6854 50.6041 93.7343C50.7028 93.6738 50.8043 93.6187 50.9112 93.5607Z" fill="#FFDD00"/>
  <path d="M43.9399 90.4406C43.6139 89.7252 42.971 89.7005 42.318 89.6953C42.4311 89.9036 42.5442 90.112 42.6573 90.3204C42.8221 90.3693 42.9787 90.4157 43.1436 90.4646C43.41 90.4584 43.6764 90.4522 43.9399 90.4406Z" fill="#FFDD00"/>
  <path d="M41.8349 89.5563C41.6191 89.044 41.2577 88.8113 40.6994 88.9551C40.8125 89.1635 40.9256 89.3719 41.0387 89.5803C41.2035 89.6292 41.3602 89.6756 41.525 89.7245C41.6265 89.6694 41.7334 89.6114 41.8349 89.5563Z" fill="#FFDD00"/>
  <path d="M40.2129 88.8109C39.9971 88.2986 39.6356 88.0659 39.0773 88.2098C39.1904 88.4182 39.3035 88.6266 39.4166 88.835C39.5815 88.8838 39.7381 88.9303 39.9029 88.9791C40.0045 88.924 40.1113 88.866 40.2129 88.8109Z" fill="#FFDD00"/>
  <path d="M45.0761 91.0417C44.8604 90.5293 44.4989 90.2966 43.9406 90.4405C44.0537 90.6489 44.1668 90.8573 44.2799 91.0657C44.4447 91.1145 44.6014 91.161 44.7662 91.2098C44.8678 91.1547 44.9746 91.0967 45.0761 91.0417Z" fill="#FFDD00"/>
  <path d="M56.228 95.1368C56.1122 95.089 55.9963 95.0412 55.8775 94.9881C55.8919 95.091 55.9009 95.1968 55.9181 95.305C56.0196 95.2499 56.1212 95.1948 56.228 95.1368Z" fill="#FFDD00"/>
  <path d="M54.6294 94.7525C54.6465 94.6948 54.6846 94.6119 54.6705 94.5988C54.5954 94.5496 54.5101 94.5199 54.4301 94.4872C54.4081 94.5614 54.3886 94.6273 54.3666 94.7015C54.4597 94.7201 54.5445 94.7363 54.6294 94.7525Z" fill="#FFDD00"/>
  <path d="M51.3898 93.7025C51.225 93.6536 51.0684 93.6072 50.9035 93.5583C51.0684 93.6072 51.2332 93.656 51.3898 93.7025Z" fill="#FFDD00"/>
  <path d="M42.3185 89.6951C42.1537 89.6463 41.9971 89.5998 41.8322 89.551C41.8902 89.6578 41.9453 89.7594 42.0033 89.8662C42.1102 89.8082 42.2117 89.7531 42.3185 89.6951Z" fill="#FFDD00"/>
  <path d="M40.6994 88.9552C40.5345 88.9063 40.3779 88.8599 40.2131 88.811C40.2711 88.9178 40.3262 89.0194 40.3842 89.1262C40.491 89.0682 40.5925 89.0131 40.6994 88.9552Z" fill="#FFDD00"/>
  <path d="M39.0776 88.2098C38.9618 88.162 38.8459 88.1142 38.7272 88.0611C38.7415 88.164 38.7505 88.2698 38.7677 88.378C38.8693 88.3229 38.9708 88.2678 39.0776 88.2098Z" fill="#FFDD00"/>
</svg>
