<svg width="100" height="100" viewBox="0 0 100 100" fill="none" xmlns="http://www.w3.org/2000/svg">
<g clip-path="url(#clip0_20_29)">
<path d="M12.5 29.1667C12.5 25.8515 13.817 22.6721 16.1612 20.3279C18.5054 17.9837 21.6848 16.6667 25 16.6667H75C78.3152 16.6667 81.4946 17.9837 83.8388 20.3279C86.183 22.6721 87.5 25.8515 87.5 29.1667V70.8334C87.5 74.1486 86.183 77.3281 83.8388 79.6723C81.4946 82.0165 78.3152 83.3334 75 83.3334H25C21.6848 83.3334 18.5054 82.0165 16.1612 79.6723C13.817 77.3281 12.5 74.1486 12.5 70.8334V29.1667Z" stroke="#457C1F" stroke-width="6" stroke-linecap="round" stroke-linejoin="round"/>
<path d="M29.1665 41.6666C29.1665 43.8767 30.0445 45.9963 31.6073 47.5591C33.1701 49.1219 35.2897 49.9999 37.4998 49.9999C39.71 49.9999 41.8296 49.1219 43.3924 47.5591C44.9552 45.9963 45.8332 43.8767 45.8332 41.6666C45.8332 39.4564 44.9552 37.3368 43.3924 35.774C41.8296 34.2112 39.71 33.3333 37.4998 33.3333C35.2897 33.3333 33.1701 34.2112 31.6073 35.774C30.0445 37.3368 29.1665 39.4564 29.1665 41.6666Z" stroke="#457C1F" stroke-width="6" stroke-linecap="round" stroke-linejoin="round"/>
<path d="M62.5 33.3333H70.8333" stroke="#457C1F" stroke-width="6" stroke-linecap="round" stroke-linejoin="round"/>
<path d="M62.5 50H70.8333" stroke="#457C1F" stroke-width="6" stroke-linecap="round" stroke-linejoin="round"/>
<path d="M29.1665 66.6667H70.8332" stroke="#457C1F" stroke-width="6" stroke-linecap="round" stroke-linejoin="round"/>
</g>
<defs>
<clipPath id="clip0_20_29">
<rect width="100" height="100" fill="white"/>
</clipPath>
</defs>
</svg>
