<svg xmlns="http://www.w3.org/2000/svg" width="105" height="105" viewBox="0 0 105 105" fill="none">
  <g clip-path="url(#clip0_280_159)">
    <path
      d="M35 56.875V19.6875C35 17.947 35.6914 16.2778 36.9221 15.0471C38.1528 13.8164 39.822 13.125 41.5625 13.125C43.303 13.125 44.9722 13.8164 46.2029 15.0471C47.4336 16.2778 48.125 17.947 48.125 19.6875V52.5"
      stroke="white" stroke-width="6" stroke-linecap="round" stroke-linejoin="round"/>
    <path
      d="M48.125 50.3125V41.5625C48.125 40.7007 48.2947 39.8473 48.6245 39.0511C48.9543 38.2549 49.4377 37.5315 50.0471 36.9221C50.6565 36.3127 51.3799 35.8293 52.1761 35.4995C52.9723 35.1697 53.8257 35 54.6875 35C55.5493 35 56.4027 35.1697 57.1989 35.4995C57.9951 35.8293 58.7185 36.3127 59.3279 36.9221C59.9373 37.5315 60.4207 38.2549 60.7505 39.0511C61.0803 39.8473 61.25 40.7007 61.25 41.5625V52.5"
      stroke="white" stroke-width="6" stroke-linecap="round" stroke-linejoin="round"/>
    <path
      d="M61.25 45.9375C61.25 44.197 61.9414 42.5278 63.1721 41.2971C64.4028 40.0664 66.072 39.375 67.8125 39.375C69.553 39.375 71.2222 40.0664 72.4529 41.2971C73.6836 42.5278 74.375 44.197 74.375 45.9375V52.5"
      stroke="white" stroke-width="6" stroke-linecap="round" stroke-linejoin="round"/>
    <path
      d="M74.3746 50.3125C74.3746 48.572 75.066 46.9028 76.2967 45.6721C77.5274 44.4414 79.1966 43.75 80.9371 43.75C82.6776 43.75 84.3468 44.4414 85.5775 45.6721C86.8082 46.9028 87.4996 48.572 87.4996 50.3125V70C87.4996 76.9619 84.734 83.6387 79.8111 88.5616C74.8883 93.4844 68.2115 96.25 61.2496 96.25H52.4996H53.4096C49.0623 96.2507 44.7829 95.1718 40.9556 93.11C37.1284 91.0482 33.8731 88.0682 31.4821 84.4375C31.1951 84.0007 30.9093 83.5632 30.6246 83.125C29.2596 81.0294 24.469 72.6775 16.2483 58.065C15.4103 56.5754 15.1864 54.8177 15.6244 53.1657C16.0623 51.5136 17.1275 50.0976 18.5933 49.2188C20.1547 48.2819 21.9843 47.8936 23.7915 48.1156C25.5988 48.3375 27.2801 49.157 28.5683 50.4437L34.9996 56.875"
      stroke="white" stroke-width="6" stroke-linecap="round" stroke-linejoin="round"/>
  </g>
  <defs>
    <clipPath id="clip0_280_159">
      <rect width="105" height="105" fill="white"/>
    </clipPath>
  </defs>
</svg>
