<svg width="330" height="336" viewBox="0 0 330 336" fill="none"
     xmlns="http://www.w3.org/2000/svg">
  <path fill-rule="evenodd" clip-rule="evenodd"
        d="M149.313 58.9092C147.739 61.5031 146.954 64.2325 146.954 67.1034C146.954 70.4517 148.464 73.2519 152.145 73.2519C154.386 73.2519 156.321 72.1967 157.966 69.933C159.618 67.6575 160.461 64.822 160.461 61.3793C160.461 59.6108 159.978 58.137 159.034 56.9226C158.185 55.779 156.981 55.1836 155.324 55.1836C152.835 55.1777 150.841 56.3626 149.313 58.9092ZM137.605 63.8611C138.584 57.5239 142.33 47.9621 155.684 47.9621C159.866 47.9621 163.305 49.1529 165.929 51.6112C168.566 54.0753 169.852 57.4473 169.852 61.6092C169.852 67.0739 168.177 71.619 164.785 75.1796C161.423 78.7107 157.064 80.4615 151.791 80.4615C147.674 80.4615 144.217 79.2177 141.486 76.6946C138.773 74.1479 137.44 70.7642 137.44 66.6318C137.434 65.942 137.546 64.5095 137.605 63.8611ZM74.71 70.4753H59.3681L54.1126 79.6362H43.3008L68.3397 38.5654H78.2903L85.9229 79.6362H76.1905L74.71 70.4753ZM71.342 49.2473C70.8996 50.1669 70.4159 51.0924 69.8792 52.0415L63.7979 62.6762H73.4359L71.8138 52.6428L71.342 49.3062V49.2473ZM233.891 77.0719C231.656 79.0703 228.789 80.1078 225.451 80.1078C222.584 80.1078 220.189 79.3533 218.349 77.7734C216.538 76.1346 215.647 73.9416 215.647 71.2947C215.647 67.1269 217.364 64.0733 220.832 62.3402C224.153 60.7013 228.052 59.8878 232.481 59.8878L236.481 59.9409L236.545 59.0389C236.534 56.4156 235.041 54.9949 231.237 54.9949C227.338 54.9949 224.3 56.3036 220.915 58.025L222.425 49.7307C226.076 48.6519 229.491 48.1331 233.301 48.1331C236.852 48.1331 239.754 48.9702 241.919 50.7446C244.101 52.5367 245.175 55.0126 245.175 58.0604C245.175 59.0507 245.075 60.1236 244.868 61.279L244.331 64.2384L242.621 72.8157L241.441 79.6303H233.555L233.891 77.0719ZM227.285 67.1092C225.592 67.7754 224.802 68.9308 224.802 70.7111C224.802 72.515 226.223 73.3049 227.869 73.3049C229.804 73.3049 231.414 72.6093 232.753 71.2004C233.944 69.9448 234.805 68.2352 235.301 66.0187L233.809 65.9833C231.39 65.9892 229.22 66.3665 227.285 67.1092ZM269.524 52.1299C269.571 51.9118 269.612 51.6937 269.665 51.4933C269.878 50.5913 270.078 49.6953 270.273 48.7874H279.474C279.103 49.8898 278.743 50.9863 278.477 52.1181C278.283 52.8904 278.106 53.6744 277.953 54.4526L270.013 91.6326H260.77L263.106 80.6384C263.23 80.0371 263.49 79.0349 263.885 77.6319L263.932 77.4669C263.271 77.9915 262.593 78.4454 261.891 78.8227C260.381 79.6421 258.688 80.043 256.836 80.043C253.397 80.043 250.596 78.8581 248.531 76.447C246.478 74.0477 245.499 70.7995 245.499 66.8086C245.499 61.9511 246.868 57.6772 249.622 54.0163C252.459 50.2612 256.305 48.3689 261.089 48.3689C265.053 48.3748 267.949 49.5892 269.524 52.1299ZM257.219 59.1922C255.721 61.3203 254.954 63.92 254.954 67.0444C254.954 68.8896 255.356 70.2454 256.075 71.2004C256.801 72.0847 257.792 72.5386 259.142 72.5386C261.136 72.5386 262.917 71.56 264.492 69.3965C266.073 67.2271 266.875 64.6333 266.875 61.5502C266.875 59.9232 266.456 58.6322 265.684 57.6182C264.958 56.6396 263.902 56.115 262.387 56.115C260.434 56.1209 258.718 57.0759 257.219 59.1922ZM182.758 51.1514C184.633 49.654 186.945 48.9053 189.665 48.9053C191.953 48.9053 193.929 49.4418 195.534 50.6031C196.525 51.2987 197.226 52.1948 197.639 53.2559C198.506 52.2066 199.503 51.3341 200.648 50.6267C202.523 49.4359 204.594 48.8464 206.87 48.8464C212.38 48.8464 216.237 52.5544 216.237 58.1075C216.237 59.1215 216.007 60.6011 215.582 62.4993C215.193 64.3975 215.022 65.6296 215.022 66.2839L212.102 80.0135H202.588L205.573 65.8949L206.328 62.3519C206.581 61.1611 206.711 60.1059 206.711 59.204C206.711 57.6005 206.062 56.9226 204.316 56.9226C202.37 56.9226 200.948 57.7951 199.952 59.6815C198.849 61.7389 197.987 64.2737 197.386 67.2979L194.72 80.0076H185.205L188.42 64.6274L188.939 61.7978C189.116 60.7898 189.21 59.9645 189.21 59.316C189.21 57.6005 188.532 56.9226 186.816 56.9226C182.439 56.9226 181 62.7528 180.286 66.0835L177.396 80.0076H167.888L172.317 58.3551C172.547 57.2763 172.819 55.9028 173.131 54.2522C173.468 52.6015 173.727 50.9745 173.916 49.3003H183.035L182.758 51.1514ZM104.403 77.3136C102.309 79.2 99.8137 80.1727 96.9353 80.1727C93.8976 80.1727 91.3849 79.3061 89.5092 77.514C87.6688 75.6748 86.7782 73.2165 86.7782 70.2395C86.7782 67.3627 87.2442 63.808 88.1525 59.6049C88.9606 55.9971 89.7805 52.3952 90.6063 48.7933H99.973L96.6876 64.091C96.2157 66.2898 95.9974 67.852 95.9974 68.8247C95.9974 69.8976 96.3101 70.7524 96.9058 71.4539C97.5251 72.0965 98.2978 72.4207 99.3006 72.4207C101.613 72.4207 103.211 71.4893 104.238 69.6087C105.37 67.4924 106.314 64.7748 107.051 61.4323L109.729 48.7874H124.045L125.301 43.0044L135.022 39.88L133.169 48.7874H140.2L138.667 55.9971H131.642L129.477 66.1071C129.247 67.0326 129.07 67.8225 128.958 68.4415C128.846 68.978 128.793 69.5852 128.793 70.2277C128.793 71.9019 129.447 72.5327 130.916 72.5327C131.447 72.5327 131.919 72.4973 132.308 72.4266C133.423 72.2379 134.544 71.7899 135.605 71.4362L134.432 79.0172C132.503 79.6421 130.716 80.043 128.669 80.043C125.926 80.043 123.685 79.312 122.069 77.738C120.452 76.164 119.697 73.9711 119.697 71.2947C119.697 69.9566 119.904 68.3413 120.305 66.4549L122.505 56.003H117.491L114.159 72.1908C113.563 74.6608 113.15 77.119 112.843 79.6362H103.966L104.403 77.3136Z"
        fill="black"/>
  <path
    d="M42.7989 278.282C42.7989 278.282 45.7481 279.331 49.063 279.331C52.5844 279.331 54.7963 278.853 56.0114 277.604C57.0259 276.584 57.4329 274.862 57.3857 272.334V255.468H62.594V273.053C62.5233 280.852 58.7541 284.183 50.0068 284.183C45.754 284.183 42.793 283.511 42.793 283.511V278.282H42.7989Z"
    fill="#457C1F"/>
  <path
    d="M86.3593 272.274C86.3593 267.741 83.3865 265.141 78.1959 265.141C73.0171 265.141 70.0384 267.741 70.0384 272.274C70.0384 278.605 75.1464 279.555 78.1959 279.555C81.2513 279.555 86.3593 278.611 86.3593 272.274ZM78.1959 260.531C86.5658 260.531 91.5618 265.011 91.5618 272.516C91.5618 277.886 88.0581 284.176 78.1959 284.176C68.3396 284.176 64.8359 277.892 64.8359 272.516C64.8359 265.006 69.8319 260.531 78.1959 260.531Z"
    fill="#457C1F"/>
  <path
    d="M112.542 261.062V270.04H99.0052V261.062H93.7969V283.64H99.0052V274.668H112.542V283.64H117.75V261.062H112.542Z"
    fill="#457C1F"/>
  <path
    d="M191.31 279.024V274.662H203.319V270.04H191.31V265.678H206.835V261.068H186.113V283.64H206.835V279.024H191.31Z"
    fill="#457C1F"/>
  <path
    d="M214.951 279.024V274.662H226.96V270.04H214.951V265.678H230.475V261.068H209.742V283.64H230.475V279.024H214.951Z"
    fill="#457C1F"/>
  <path
    d="M264.297 279.024V274.662H276.306V270.04H264.297V265.678H279.822V261.068H259.089V283.64H279.822V279.024H264.297Z"
    fill="#457C1F"/>
  <path
    d="M168.076 255.45H161.522H155.494V283.64H161.522H168.076C179.837 283.64 184.007 276.153 184.007 269.739C184.013 260.791 178.05 255.45 168.076 255.45ZM168.076 260.101C174.876 260.101 178.769 263.508 178.769 269.445C178.769 277.745 172.069 278.983 168.076 278.983H160.714V260.089L168.076 260.101Z"
    fill="#457C1F"/>
  <path
    d="M238.586 270.753V265.678H248.1C249.923 265.678 250.967 266.597 250.967 268.189C250.967 270.423 249.168 270.759 248.1 270.759L238.586 270.753ZM250.743 275.051C254.695 274.102 256.181 271.013 256.181 268.307C256.181 263.768 253.161 261.062 248.1 261.062H233.384V283.64H238.586V275.375H244.697L250.979 283.64H257.272L250.743 275.051Z"
    fill="#457C1F"/>
  <path
    d="M139.881 283.64L126.344 268.242V283.64H121.136V261.062H126.291L139.881 276.295V261.062H145.083V283.64H139.881Z"
    fill="#457C1F"/>
  <path
    d="M215.671 135.769C199.438 127.81 180.752 123.324 161.287 123.324C141.769 123.324 123.106 127.84 106.839 135.845C101.07 149.787 97.8965 164.99 97.8965 180.919C97.8965 196.841 101.076 212.045 106.833 225.975C123.106 233.992 141.775 238.496 161.293 238.496C180.758 238.496 199.45 234.004 215.688 226.051C221.475 212.098 224.66 196.871 224.66 180.925C224.648 164.961 221.457 149.728 215.671 135.769Z"
    fill="#457C1F"/>
  <path
    d="M211.801 139.176C196.642 132.043 179.295 128.034 161.287 128.034C143.226 128.034 125.914 132.066 110.708 139.241C105.57 152.192 102.774 166.246 102.774 180.936C102.774 195.58 105.57 209.622 110.684 222.555C125.884 229.741 143.214 233.774 161.287 233.774C179.307 233.774 196.666 229.771 211.837 222.62C216.956 209.675 219.764 195.615 219.764 180.936C219.764 166.222 216.939 152.157 211.801 139.176ZM210.279 216.955C205.608 208.861 203.72 206.409 203.72 206.409C203.661 206.368 197.126 202.96 195.504 201.569C194.218 200.449 193.599 198.173 192.891 195.544C191.906 191.895 190.661 187.38 187.122 183.642L191.056 182.033C189.965 174.452 180.976 169.529 180.887 169.47L180.38 169.712C183.801 174.01 184.804 177.67 184.804 179.899C184.804 181.037 184.627 181.791 184.544 182.104C183.512 181.732 176.877 179.586 161.794 180.152C159.576 180.229 156.409 180.123 154.51 178.289C153.436 177.252 152.899 175.766 152.899 173.85V173.839C152.905 168.61 155.111 161.559 155.43 160.569L159.364 161.046C164.047 158.441 165.882 156.201 166.141 155.853L165.923 155.623C161.924 156.136 156.686 157.191 156.686 157.191C157.034 156.277 158.096 153.265 158.096 149.858C158.096 146.179 156.863 142.053 152.18 139.653L151.678 139.895C151.72 139.936 154.409 142.854 154.409 146.857C154.409 147.965 154.191 149.162 153.66 150.406C152.133 149.769 151.501 149.704 149.673 149.657C148.782 146.521 146.045 143.856 142.318 142.507L141.863 142.778C141.905 142.807 145.851 145.613 146.081 149.763C144.087 149.922 143.25 150.117 140.796 150.866C139.764 149.144 137.422 147.918 134.479 147.564L134.095 147.859C134.131 147.877 137.599 149.08 138.371 151.732C136.219 152.723 133.995 154.244 132.473 155.458L132.626 156.036C141.616 152.546 150.021 151.526 152.162 154.067C152.522 154.497 152.711 154.998 152.711 155.594C152.711 156.342 152.422 157.209 151.855 158.193C147.402 159.166 140.749 161.058 135.281 163.116L136.006 165.409C136.006 165.409 141.515 166.529 143.598 166.959C143.598 166.959 144.382 167.071 143.993 167.855C141.368 173.066 139.551 178.897 138.808 185.552C138.596 185.582 137.263 185.694 137.263 185.694C131.801 186.195 126.144 186.619 120.664 188.735L121.054 190.952C129.99 202.052 143.527 208.755 143.662 208.814L143.975 208.484L141.049 203.827C140.353 203.302 138.525 202.884 138.466 202.878C132.367 200.844 128.091 192.88 127.389 191.512C132.414 191.494 136.826 192.95 141.091 194.359C143.904 195.297 146.564 196.169 149.313 196.617C154.15 197.395 159.205 196.487 163.758 195.922C167.451 195.479 171.031 195.485 174.6 195.721C175.024 196.246 178.782 200.785 182.356 202.654C186.851 205.012 199.928 208.908 200.576 209.132C200.842 209.386 205.879 214.444 208.97 220.309C194.324 227.047 177.838 230.614 161.287 230.614C144.695 230.614 128.155 227.024 113.445 220.209C108.59 207.653 106.125 194.442 106.125 180.913C106.125 167.407 108.596 154.185 113.451 141.616C128.155 134.808 144.689 131.212 161.287 131.212C177.873 131.212 194.401 134.796 209.058 141.557C213.931 154.143 216.402 167.378 216.402 180.913C216.402 193.304 214.338 205.418 210.279 216.955Z"
    fill="#FFDD00"/>
</svg>
