<svg xmlns="http://www.w3.org/2000/svg" width="522" height="12" viewBox="0 0 522 12" fill="none">
  <path d="M345.708 1.04379C352.812 1.09819 377.967 1.40913 394.094 1.46542C431.414 1.59194 468.741 1.82142 505.957 3.10399C511.775 3.30591 521.666 3.38004 521.449 6.70272C521.22 10.1604 514.586 12.1347 504.44 11.945C479.884 11.4818 455.203 10.5347 430.763 10.99C395.011 11.6546 359.323 10.9658 323.611 10.9289C291.545 10.8956 259.469 10.5243 227.405 10.5234C197.285 10.5203 167.172 11.0932 137.064 10.8788C111.077 10.6931 85.1082 9.679 59.1137 9.21399C52.9949 9.10436 45.6252 9.67463 38.9164 9.58232C33.3693 9.50506 24.1185 9.42325 18.6245 9.10295C16.2535 8.96333 13.7899 8.78995 11.4672 8.9008C0.789918 9.39332 -2.02343 8.1744 1.57039 4.39873C2.36179 3.56775 1.46088 2.46956 4.04614 1.9132C4.15396 1.89137 4.36674 1.84474 4.46308 1.81392C12.3035 -0.441465 20.3268 0.676136 28.417 0.669425C68.1183 0.647793 107.828 0.855469 147.532 0.980805C171.894 1.05614 196.285 1.34935 220.604 1.04792C227.263 0.96613 233.925 0.511228 240.682 0.842311L240.566 0.84051C247.618 0.767741 254.673 0.586324 261.723 0.636938C288.398 0.830431 316.258 0.704408 341.854 1.1603C342.862 1.17594 344.224 1.03252 345.708 1.04379Z" fill="#FFDD00"/>
</svg>
