<svg xmlns="http://www.w3.org/2000/svg" width="187" height="78" viewBox="0 0 187 78" fill="none">
  <g clip-path="url(#clip0_280_206)">
    <path d="M97.5626 72.2079C103.776 71.6396 109.964 70.8667 116.097 69.8816C121.891 68.9419 127.675 67.8887 133.353 66.5171L135.489 66.0246L137.609 65.479C139.021 65.1076 140.433 64.759 141.837 64.3726C144.626 63.5618 147.452 62.7965 150.187 61.9023C155.668 60.1519 160.935 58.0983 165.637 55.4386C167.989 54.1125 170.152 52.6121 172.11 50.9526C174.051 49.3083 175.741 47.4897 177.109 45.4816C177.377 45.0724 177.627 44.6481 177.851 44.2237L178.468 42.9204L178.414 42.9886C181.114 37.9646 181.748 32.2057 179.245 27.3711C176.804 22.4835 171.511 18.7553 165.476 16.1563C161.954 14.6635 158.199 13.451 154.318 12.481C150.42 11.549 146.388 10.6928 142.374 9.99566C134.318 8.58619 126.137 7.69202 117.929 7.30557C101.497 6.53265 84.9381 7.79054 68.9074 11.0034C67.6467 11.2232 66.1895 11.5793 64.6963 11.8976C63.2033 12.231 61.6565 12.5038 60.2886 12.7918C57.5348 13.3222 55.3174 13.4889 55.0671 12.6554C54.5307 10.9807 59.8236 8.16184 68.8716 6.3129C74.3254 5.1611 79.8777 4.37303 85.4299 3.7062C88.2195 3.44098 91.0001 3.10757 93.8075 2.96359C95.2112 2.88024 96.6059 2.759 98.0095 2.69837L102.212 2.53925C103.616 2.47105 105.01 2.47105 106.414 2.46347C107.818 2.46347 109.212 2.42558 110.616 2.44073C113.414 2.52409 116.213 2.51651 119.011 2.6908C124.6 2.90297 130.152 3.45614 135.686 4.04719L141.729 4.86557L147.729 5.88855L153.684 7.11613C155.668 7.55563 157.663 8.05575 159.629 8.62411C163.555 9.7683 167.443 11.1323 171.1 12.9888C172.013 13.4586 172.924 13.9208 173.8 14.4588C174.694 14.959 175.544 15.5273 176.384 16.1108C177.243 16.6715 178.002 17.3459 178.816 17.9597L179.934 18.9827C180.318 19.3161 180.675 19.6722 181.006 20.0511C183.778 22.9761 185.807 26.5073 186.523 30.2809C187.292 34.0394 186.827 37.8661 185.593 41.4124C184.95 43.178 184.136 44.8905 183.152 46.5349C182.142 48.1641 180.989 49.7175 179.701 51.1875C177.064 54.1201 173.899 56.598 170.474 58.7121C164.314 62.5237 157.403 65.0774 150.537 67.2294C143.652 69.336 136.661 71.1622 129.562 72.6625C115.372 75.6785 100.799 77.3303 86.19 77.8305C72.448 78.217 58.7061 77.6259 45.0446 75.7467C41.6113 75.2314 38.196 74.61 34.8075 73.8068C31.4278 72.9808 28.0749 72.0033 24.8026 70.7909C21.5482 69.5405 18.3742 68.0705 15.3879 66.2973C12.4106 64.5015 9.68371 62.3418 7.3323 59.8791L5.87506 58.2423C5.41907 57.6816 5.01681 57.0754 4.59659 56.4919L3.97078 55.6129C3.77408 55.3174 3.61307 54.9991 3.43425 54.6884L2.40615 52.8243C1.16338 50.2707 0.421256 47.5503 0.126211 44.8148C-0.159894 42.0793 0.0545189 39.3362 0.626727 36.684C1.21682 34.0319 2.19148 31.4706 3.43425 29.0306C5.95554 24.1658 9.57654 19.7935 13.9396 16.088C16.1212 14.2315 18.4904 12.5341 21.0386 11.0414C22.3081 10.2912 23.6226 9.59405 24.9815 8.94988C26.3406 8.32854 27.6905 7.75265 29.0673 7.18433C34.2887 5.12321 38.64 3.35892 45.1875 2.06943C48.7123 1.37525 50.8598 1.2919 54.3377 0.829668C57.8067 0.337123 61.4347 0.48745 65.4116 0.349311C67.5932 0.273535 69.8194 0.311423 71.9205 0.190181C81.5855 -0.309942 84.1155 0.341733 80.9327 2.31949C80.2353 2.759 81.0668 3.31216 78.7423 3.638C78.7333 3.638 78.5635 3.60769 78.5635 3.60769L78.6349 3.638C75.3983 4.3503 71.8043 4.59278 68.1118 4.74433C64.4282 4.90346 60.6552 4.98682 57.1057 5.32781C48.4063 6.1765 39.841 7.80569 32.0537 10.867C31.0612 11.2232 30.1314 11.6552 29.1747 12.0795C28.2091 12.4887 27.2971 12.9358 26.403 13.398C24.6149 14.3301 22.9072 15.3985 21.2889 16.5502C18.0524 18.8614 15.1823 21.5439 12.7952 24.4992C8.04765 30.387 5.20443 37.51 6.02698 44.4283C6.23262 46.1484 6.65299 47.8383 7.30567 49.4675L7.84198 50.6722C8.03868 51.0663 8.28006 51.4528 8.49464 51.8468L9.1473 53.0214C9.39764 53.4003 9.67492 53.764 9.94311 54.1277C12.0621 57.0829 14.9588 59.6442 18.3116 61.7507C22.4064 64.3803 27.2076 66.2822 32.1608 67.7977C37.1318 69.3133 42.3533 70.3362 47.6283 71.0788C58.2768 72.5413 69.122 73.1551 79.8956 73.0641C85.8055 72.9429 91.6883 72.511 97.6608 72.1852L97.5626 72.2079Z" fill="#FFDD00"/>
  </g>
  <defs>
    <clipPath id="clip0_280_206">
      <rect width="187" height="78" fill="white"/>
    </clipPath>
  </defs>
</svg>
