<svg width="100" height="100" viewBox="0 0 100 100" fill="none" xmlns="http://www.w3.org/2000/svg">
<path d="M87.5004 45.8331C87.5004 27.4236 72.5765 12.4997 54.167 12.4997M58.3332 29.6914C64.1902 31.1987 68.8013 35.8097 70.3087 41.6667M65.1832 61.7L69.8317 55.502C70.4116 54.7287 71.4616 54.4809 72.3261 54.9131L86.1335 61.8168C86.9402 62.2202 87.3771 63.1135 87.2003 63.9979L83.6547 81.7256C83.4678 82.6604 82.6438 83.3369 81.6908 83.311C47.5025 82.3793 17.6205 52.4974 16.6889 18.309C16.6629 17.356 17.3394 16.5321 18.2743 16.3451L36.0019 12.7996C36.8863 12.6227 37.7797 13.0596 38.183 13.8663L45.0867 27.6737C45.519 28.5383 45.2711 29.5882 44.4979 30.1682L38.2998 34.8167C37.7962 35.1944 37.4845 35.785 37.579 36.4073C38.8537 44.8 55.1998 61.1462 63.5925 62.4208C64.2149 62.5153 64.8055 62.2036 65.1832 61.7Z" stroke="#457C1F" stroke-width="6" stroke-linecap="round" stroke-linejoin="round"/>
</svg>
